<?xml version="1.0" encoding="UTF-8"?>
<svg version="1.1" xmlns="http://www.w3.org/2000/svg" width="640" height="640">
<path d="M0 0 C211.2 0 422.4 0 640 0 C640 211.2 640 422.4 640 640 C428.8 640 217.6 640 0 640 C0 428.8 0 217.6 0 0 Z " fill="#FB746E" transform="translate(0,0)"/>
<path d="M0 0 C1.04081726 0.0195575 2.08163452 0.03911499 3.1539917 0.05926514 C6.09499092 0.11622698 9.03575998 0.17981841 11.9765625 0.24609375 C12.84307434 0.26281631 13.70958618 0.27953888 14.60235596 0.29676819 C18.9614121 0.40438276 23.07698893 0.76112285 27.375 1.5625 C28.80776943 1.69373057 30.24300203 1.80154626 31.6796875 1.87890625 C32.80117188 1.94174805 32.80117188 1.94174805 33.9453125 2.00585938 C35.08613281 2.06483398 35.08613281 2.06483398 36.25 2.125 C37.03375 2.16818359 37.8175 2.21136719 38.625 2.25585938 C40.54150649 2.36103351 42.45823333 2.46217925 44.375 2.5625 C44.375 3.2225 44.375 3.8825 44.375 4.5625 C45.04853516 4.58231934 45.72207031 4.60213867 46.41601562 4.62255859 C80.69077401 5.67977251 80.69077401 5.67977251 87.8046875 8.5390625 C91.82363076 10.13931042 96.06414251 10.65084129 100.31640625 11.33007812 C105.05333056 12.14663365 109.01853095 13.52076059 113.375 15.5625 C113.375 16.2225 113.375 16.8825 113.375 17.5625 C115.025 17.5625 116.675 17.5625 118.375 17.5625 C118.375 18.2225 118.375 18.8825 118.375 19.5625 C119.98375 19.68625 119.98375 19.68625 121.625 19.8125 C125.72588558 20.63267712 126.87338425 21.31966476 129.375 24.5625 C131.2238532 27.66216862 131.62588578 29.9296526 131.62947559 33.52291012 C131.63530779 34.52752535 131.64113998 35.53214058 131.64714891 36.56719869 C131.64336958 37.66883889 131.63959026 38.77047909 131.63569641 39.90550232 C131.63952196 41.07737172 131.64334751 42.24924111 131.64728898 43.45662171 C131.65583216 46.71022952 131.65538154 49.96369356 131.65110838 53.2173053 C131.6486452 56.72589636 131.65765023 60.23446067 131.66514587 63.74304199 C131.67790616 70.61697512 131.67968492 77.49086921 131.67734561 84.36481219 C131.67556381 89.95106333 131.67730911 95.5373026 131.68157005 101.12355232 C131.68216524 101.91809542 131.68276043 102.71263853 131.68337366 103.53125869 C131.68458539 105.1452829 131.68579952 106.75930711 131.68701603 108.37333132 C131.69789664 123.51533726 131.69572658 138.65732095 131.68963119 153.79932816 C131.68446127 167.65672355 131.69571851 181.51404866 131.71472941 195.37143015 C131.73409339 209.59505368 131.74236636 223.81864393 131.73860615 238.04228073 C131.73669196 246.02983765 131.73920292 254.01733473 131.75332069 262.00488091 C131.76521713 268.80454439 131.76665896 275.60411121 131.75453053 282.40377598 C131.74862963 285.87376765 131.74757559 289.34358237 131.75953293 292.81356239 C131.76992962 296.57337872 131.76195624 300.3327154 131.7492218 304.09251404 C131.75659609 305.19192351 131.76397037 306.29133299 131.77156812 307.4240579 C131.70732054 316.40362531 131.70732054 316.40362531 128.375 320.5625 C127.900625 321.47 127.42625 322.3775 126.9375 323.3125 C125.375 325.5625 125.375 325.5625 123.1875 326.375 C122.2903125 326.4678125 122.2903125 326.4678125 121.375 326.5625 C121.375 327.2225 121.375 327.8825 121.375 328.5625 C120.055 328.5625 118.735 328.5625 117.375 328.5625 C117.375 329.2225 117.375 329.8825 117.375 330.5625 C116.53195312 330.91183594 115.68890625 331.26117188 114.8203125 331.62109375 C113.72460938 332.07613281 112.62890625 332.53117187 111.5 333 C110.40945313 333.45246094 109.31890625 333.90492188 108.1953125 334.37109375 C106.56941376 335.05793463 104.95368226 335.77315887 103.375 336.5625 C101.42122267 336.88326941 99.46169242 337.16935499 97.5 337.4375 C90.26964676 338.51653964 83.29325964 340.19027839 76.25390625 342.15429688 C61.54657497 346.23415522 47.1827597 347.64950609 31.95263672 348.34472656 C29.25883681 348.47053243 29.25883681 348.47053243 26.375 349.5625 C24.69232887 349.78928263 23.00345168 349.97171949 21.3125 350.125 C20.43464844 350.20878906 19.55679688 350.29257812 18.65234375 350.37890625 C14.23306812 350.62646996 9.80120434 350.5625 5.375 350.5625 C5.375 357.8225 5.375 365.0825 5.375 372.5625 C4.715 372.5625 4.055 372.5625 3.375 372.5625 C3.375 373.2225 3.375 373.8825 3.375 374.5625 C-1.27269913 374.09773009 -4.66090251 372.70353317 -8.6953125 370.5 C-10.65859691 369.54617761 -12.49580096 369.01672913 -14.625 368.5625 C-14.625 367.9025 -14.625 367.2425 -14.625 366.5625 C-15.22828125 366.51351563 -15.8315625 366.46453125 -16.453125 366.4140625 C-17.25234375 366.33929688 -18.0515625 366.26453125 -18.875 366.1875 C-19.66390625 366.11789062 -20.4528125 366.04828125 -21.265625 365.9765625 C-23.625 365.5625 -23.625 365.5625 -25.48901367 364.59692383 C-27.74936304 363.50227298 -29.69298846 363.03910643 -32.16015625 362.59765625 C-37.82746395 361.53367097 -43.44110102 360.28260762 -49.0625 359 C-50.53106445 358.66838867 -50.53106445 358.66838867 -52.02929688 358.33007812 C-52.96708984 358.11673828 -53.90488281 357.90339844 -54.87109375 357.68359375 C-55.71341553 357.4920874 -56.5557373 357.30058105 -57.42358398 357.10327148 C-59.625 356.5625 -59.625 356.5625 -62.625 355.5625 C-63.98952167 355.38541541 -65.35916767 355.2460012 -66.73046875 355.1328125 C-67.94428223 355.02549805 -67.94428223 355.02549805 -69.18261719 354.91601562 C-70.05047852 354.84060547 -70.91833984 354.76519531 -71.8125 354.6875 C-77.93741351 354.12653881 -83.86043962 353.39309548 -89.875 352.0625 C-99.78373531 350.02941234 -109.89202437 349.7263522 -119.97167969 349.20898438 C-121.01168877 349.15383163 -121.01168877 349.15383163 -122.07270813 349.0975647 C-123.99084333 348.99735938 -125.90935739 348.90448578 -127.82788086 348.81201172 C-130.625 348.5625 -130.625 348.5625 -131.625 347.5625 C-134.43552298 347.02325471 -137.23938783 346.52575642 -140.0625 346.0625 C-148.36221072 344.69389464 -148.36221072 344.69389464 -150.625 343.5625 C-153.14552551 343.24197074 -155.6614691 342.95558143 -158.1875 342.6875 C-163.5089918 342.07504307 -168.3305453 341.25745989 -173.359375 339.34765625 C-176.22089739 338.35599073 -179.10653724 337.7189987 -182.0625 337.0625 C-196.38548085 333.8591167 -196.38548085 333.8591167 -202.625 330.5625 C-202.625 329.9025 -202.625 329.2425 -202.625 328.5625 C-203.8934375 328.253125 -203.8934375 328.253125 -205.1875 327.9375 C-209.77809835 326.10126066 -214.35394274 323.10461452 -216.625 318.5625 C-216.71874144 316.9521704 -216.74873424 315.33795299 -216.74804783 313.72489738 C-216.75003888 312.69679699 -216.75202993 311.66869659 -216.75408131 310.60944164 C-216.75116847 309.47132852 -216.74825563 308.33321541 -216.74525452 307.16061401 C-216.74610894 305.95834077 -216.74696337 304.75606753 -216.74784368 303.51736176 C-216.74921041 300.16979613 -216.74606843 296.82228843 -216.74106562 293.47472978 C-216.73676019 289.8687326 -216.73820761 286.26273731 -216.7389679 282.65673828 C-216.73949307 276.40563403 -216.73634693 270.1545402 -216.73073006 263.90343857 C-216.7226142 254.86531754 -216.71999975 245.82720157 -216.71874207 236.7890773 C-216.71655168 222.12647185 -216.70989196 207.46387196 -216.70043945 192.80126953 C-216.69126499 178.55517606 -216.68418432 164.3090841 -216.67993164 150.06298828 C-216.67966892 149.18533703 -216.67940619 148.30768578 -216.67913551 147.40343903 C-216.6778305 143.00066336 -216.67656679 138.59788768 -216.67532361 134.19511199 C-216.66495141 97.65090407 -216.64733346 61.10670247 -216.625 24.5625 C-215.305 23.9025 -213.985 23.2425 -212.625 22.5625 C-212.625 21.9025 -212.625 21.2425 -212.625 20.5625 C-193.41575166 11.1307905 -173.78274546 7.75942082 -152.72485352 5.25488281 C-150.06111272 4.93733462 -147.3987242 4.60986239 -144.73632812 4.28125 C-135.62292621 3.17280485 -126.55332296 2.25819582 -117.38305664 1.79541016 C-114.666254 1.73744512 -114.666254 1.73744512 -112.625 0.5625 C-110.35459654 0.40467149 -108.07963154 0.3114492 -105.8046875 0.24609375 C-105.09576355 0.22522202 -104.3868396 0.20435028 -103.65643311 0.18284607 C-101.27107827 0.11554099 -98.88562421 0.05692481 -96.5 0 C-95.25002228 -0.03126984 -95.25002228 -0.03126984 -93.97479248 -0.06317139 C-62.65223181 -0.829624 -31.32316693 -0.61790226 0 0 Z " fill="#DDDCD2" transform="translate(362.625,135.4375)"/>
<path d="M0 0 C-0.66 0.66 -1.32 1.32 -2 2 C-2.46162427 4.43252661 -2.46162427 4.43252661 -2.625 7.125 C-2.69976562 8.03507813 -2.77453125 8.94515625 -2.8515625 9.8828125 C-2.90054688 10.58148438 -2.94953125 11.28015625 -3 12 C-2.01 12.33 -1.02 12.66 0 13 C1.03013277 14.64821244 2.03114628 16.31503702 3 18 C3.66 18.33 4.32 18.66 5 19 C5 19.66 5 20.32 5 21 C5.55945313 21.26167969 6.11890625 21.52335937 6.6953125 21.79296875 C9.23752324 23.12439777 11.50809035 24.69019566 13.875 26.3125 C20.22303098 30.39458944 26.84968425 32.70561297 34 35 C35.39510548 35.46311749 36.78959649 35.92808857 38.18359375 36.39453125 C41.71189739 37.57287124 45.24380989 38.73978325 48.77734375 39.90234375 C50.83074304 40.58068716 52.88412825 41.25907321 54.9375 41.9375 C56.46793945 42.43926758 56.46793945 42.43926758 58.02929688 42.95117188 C64.45270546 45.07864415 70.75049642 47.40519711 77 50 C77 50.66 77 51.32 77 52 C78.98 52.33 80.96 52.66 83 53 C83 53.66 83 54.32 83 55 C83.86625 55.2475 84.7325 55.495 85.625 55.75 C96.93835731 59.94013234 108.64172575 71.79192134 115 82 C115.70703125 84.7890625 115.70703125 84.7890625 116 87 C116.66 87 117.32 87 118 87 C118.81391255 89.58289592 119.62617929 92.16628997 120.4375 94.75 C120.78264648 95.84441406 120.78264648 95.84441406 121.13476562 96.9609375 C121.35712891 97.66992188 121.57949219 98.37890625 121.80859375 99.109375 C122.01282959 99.75874023 122.21706543 100.40810547 122.42749023 101.07714844 C122.61641846 101.71168945 122.80534668 102.34623047 123 103 C123.1868335 103.6185083 123.37366699 104.2370166 123.56616211 104.87426758 C124.11899819 107.58307105 124.12980392 110.13766914 124.1328125 112.90234375 C124.13410156 114.03994141 124.13539063 115.17753906 124.13671875 116.34960938 C124.13285156 117.53361328 124.12898437 118.71761719 124.125 119.9375 C124.12886719 121.11763672 124.13273438 122.29777344 124.13671875 123.51367188 C124.13478516 125.22200195 124.13478516 125.22200195 124.1328125 126.96484375 C124.13168457 128.0024585 124.13055664 129.04007324 124.12939453 130.10913086 C124.00637359 132.85760429 123.60794167 135.32242801 123 138 C122.16654185 141.45704496 122.16654185 141.45704496 123 145 C124.88855316 146.73766361 126.91491224 147.92240478 129.12109375 149.234375 C147.16163063 160.29858487 166.47233466 178.38254566 175 198 C175.91648214 199.72926447 176.83317323 201.45841822 177.75 203.1875 C189.92728221 227.63431656 196.44518744 254.39054898 201.2890625 281.1171875 C201.74457927 283.60500986 202.2170121 286.08983002 202.7109375 288.5703125 C204.6908525 298.59762396 206.15225709 308.6781817 207.55444336 318.80175781 C208.32647903 324.36480609 209.14286697 329.90527985 210.11328125 335.4375 C210.81851611 339.58707301 211.2255107 343.52855072 211.125 347.75 C211.10695313 348.75546875 211.08890625 349.7609375 211.0703125 350.796875 C211.04710937 351.52390625 211.02390625 352.2509375 211 353 C210.34 353 209.68 353 209 353 C209 353.66 209 354.32 209 355 C204.35230087 354.53523009 200.96409749 353.14103317 196.9296875 350.9375 C194.96640309 349.98367761 193.12919904 349.45422913 191 349 C191 348.34 191 347.68 191 347 C190.39671875 346.95101563 189.7934375 346.90203125 189.171875 346.8515625 C188.37265625 346.77679688 187.5734375 346.70203125 186.75 346.625 C185.96109375 346.55539062 185.1721875 346.48578125 184.359375 346.4140625 C182 346 182 346 180.13598633 345.03442383 C177.87563696 343.93977298 175.93201154 343.47660643 173.46484375 343.03515625 C167.79753605 341.97117097 162.18389898 340.72010762 156.5625 339.4375 C155.09393555 339.10588867 155.09393555 339.10588867 153.59570312 338.76757812 C152.65791016 338.55423828 151.72011719 338.34089844 150.75390625 338.12109375 C149.91158447 337.9295874 149.0692627 337.73808105 148.20141602 337.54077148 C146 337 146 337 143 336 C141.63547833 335.82291541 140.26583233 335.6835012 138.89453125 335.5703125 C137.68071777 335.46299805 137.68071777 335.46299805 136.44238281 335.35351562 C135.57452148 335.27810547 134.70666016 335.20269531 133.8125 335.125 C127.68758649 334.56403881 121.76456038 333.83059548 115.75 332.5 C105.84126469 330.46691234 95.73297563 330.1638522 85.65332031 329.64648438 C84.61331123 329.59133163 84.61331123 329.59133163 83.55229187 329.5350647 C81.63415667 329.43485938 79.71564261 329.34198578 77.79711914 329.24951172 C75 329 75 329 74 328 C71.18947702 327.46075471 68.38561217 326.96325642 65.5625 326.5 C57.26278928 325.13139464 57.26278928 325.13139464 55 324 C52.47947449 323.67947074 49.9635309 323.39308143 47.4375 323.125 C42.1160082 322.51254307 37.2944547 321.69495989 32.265625 319.78515625 C29.40410261 318.79349073 26.51846276 318.1564987 23.5625 317.5 C9.23951915 314.2966167 9.23951915 314.2966167 3 311 C3 310.34 3 309.68 3 309 C1.7315625 308.690625 1.7315625 308.690625 0.4375 308.375 C-4.15309835 306.53876066 -8.72894274 303.54211452 -11 299 C-11.09374144 297.3896704 -11.12373424 295.77545299 -11.12304783 294.16239738 C-11.12503888 293.13429699 -11.12702993 292.10619659 -11.12908131 291.04694164 C-11.12616847 289.90882852 -11.12325563 288.77071541 -11.12025452 287.59811401 C-11.12110894 286.39584077 -11.12196337 285.19356753 -11.12284368 283.95486176 C-11.12421041 280.60729613 -11.12106843 277.25978843 -11.11606562 273.91222978 C-11.11176019 270.3062326 -11.11320761 266.70023731 -11.1139679 263.09423828 C-11.11449307 256.84313403 -11.11134693 250.5920402 -11.10573006 244.34093857 C-11.0976142 235.30281754 -11.09499975 226.26470157 -11.09374207 217.2265773 C-11.09155168 202.56397185 -11.08489196 187.90137196 -11.07543945 173.23876953 C-11.06626499 158.99267606 -11.05918432 144.7465841 -11.05493164 130.50048828 C-11.05466892 129.62283703 -11.05440619 128.74518578 -11.05413551 127.84093903 C-11.0528305 123.43816336 -11.05156679 119.03538768 -11.05032361 114.63261199 C-11.03995141 78.08840407 -11.02233346 41.54420247 -11 5 C-9.68 4.34 -8.36 3.68 -7 3 C-7 2.34 -7 1.68 -7 1 C-3.375 -1.125 -3.375 -1.125 0 0 Z " fill="#ADAAA0" transform="translate(157,155)"/>
<path d="M0 0 C1.04081726 0.0195575 2.08163452 0.03911499 3.1539917 0.05926514 C6.09499092 0.11622698 9.03575998 0.17981841 11.9765625 0.24609375 C12.84307434 0.26281631 13.70958618 0.27953888 14.60235596 0.29676819 C18.9614121 0.40438276 23.07698893 0.76112285 27.375 1.5625 C28.80776943 1.69373057 30.24300203 1.80154626 31.6796875 1.87890625 C32.80117188 1.94174805 32.80117188 1.94174805 33.9453125 2.00585938 C35.08613281 2.06483398 35.08613281 2.06483398 36.25 2.125 C37.03375 2.16818359 37.8175 2.21136719 38.625 2.25585938 C40.54150649 2.36103351 42.45823333 2.46217925 44.375 2.5625 C44.375 3.2225 44.375 3.8825 44.375 4.5625 C45.04853516 4.58231934 45.72207031 4.60213867 46.41601562 4.62255859 C80.69077401 5.67977251 80.69077401 5.67977251 87.8046875 8.5390625 C91.82363076 10.13931042 96.06414251 10.65084129 100.31640625 11.33007812 C105.05333056 12.14663365 109.01853095 13.52076059 113.375 15.5625 C113.375 16.2225 113.375 16.8825 113.375 17.5625 C115.025 17.5625 116.675 17.5625 118.375 17.5625 C118.375 18.2225 118.375 18.8825 118.375 19.5625 C119.98375 19.68625 119.98375 19.68625 121.625 19.8125 C125.72588558 20.63267712 126.87338425 21.31966476 129.375 24.5625 C131.2238532 27.66216862 131.62588578 29.9296526 131.62947559 33.52291012 C131.63530779 34.52752535 131.64113998 35.53214058 131.64714891 36.56719869 C131.64336958 37.66883889 131.63959026 38.77047909 131.63569641 39.90550232 C131.63952196 41.07737172 131.64334751 42.24924111 131.64728898 43.45662171 C131.65583216 46.71022952 131.65538154 49.96369356 131.65110838 53.2173053 C131.6486452 56.72589636 131.65765023 60.23446067 131.66514587 63.74304199 C131.67790616 70.61697512 131.67968492 77.49086921 131.67734561 84.36481219 C131.67556381 89.95106333 131.67730911 95.5373026 131.68157005 101.12355232 C131.68216524 101.91809542 131.68276043 102.71263853 131.68337366 103.53125869 C131.68458539 105.1452829 131.68579952 106.75930711 131.68701603 108.37333132 C131.69789664 123.51533726 131.69572658 138.65732095 131.68963119 153.79932816 C131.68446127 167.65672355 131.69571851 181.51404866 131.71472941 195.37143015 C131.73409339 209.59505368 131.74236636 223.81864393 131.73860615 238.04228073 C131.73669196 246.02983765 131.73920292 254.01733473 131.75332069 262.00488091 C131.76521713 268.80454439 131.76665896 275.60411121 131.75453053 282.40377598 C131.74862963 285.87376765 131.74757559 289.34358237 131.75953293 292.81356239 C131.76992962 296.57337872 131.76195624 300.3327154 131.7492218 304.09251404 C131.75659609 305.19192351 131.76397037 306.29133299 131.77156812 307.4240579 C131.70732054 316.40362531 131.70732054 316.40362531 128.375 320.5625 C127.900625 321.47 127.42625 322.3775 126.9375 323.3125 C125.375 325.5625 125.375 325.5625 123.1875 326.375 C122.2903125 326.4678125 122.2903125 326.4678125 121.375 326.5625 C121.375 327.2225 121.375 327.8825 121.375 328.5625 C120.055 328.5625 118.735 328.5625 117.375 328.5625 C117.375 329.2225 117.375 329.8825 117.375 330.5625 C116.53195312 330.91183594 115.68890625 331.26117188 114.8203125 331.62109375 C113.72460938 332.07613281 112.62890625 332.53117187 111.5 333 C110.40945313 333.45246094 109.31890625 333.90492188 108.1953125 334.37109375 C106.56941376 335.05793463 104.95368226 335.77315887 103.375 336.5625 C101.42122267 336.88326941 99.46169242 337.16935499 97.5 337.4375 C90.26964676 338.51653964 83.29325964 340.19027839 76.25390625 342.15429688 C61.54657497 346.23415522 47.1827597 347.64950609 31.95263672 348.34472656 C29.25883681 348.47053243 29.25883681 348.47053243 26.375 349.5625 C19.37826016 350.50548823 12.42455359 350.66466744 5.375 350.5625 C5.375 353.8625 5.375 357.1625 5.375 360.5625 C5.045 360.5625 4.715 360.5625 4.375 360.5625 C4.20895264 359.43457031 4.04290527 358.30664062 3.87182617 357.14453125 C3.24313179 352.87974005 2.61028952 348.61557221 1.97631836 344.3515625 C1.70471378 342.52099573 1.4341708 340.69027106 1.16479492 338.859375 C-0.35410926 328.54100914 -1.97209824 318.26559848 -3.95874023 308.02612305 C-4.64041528 304.48236199 -5.26176168 300.93116853 -5.875 297.375 C-10.96967477 269.51279688 -18.6158785 242.7718857 -31.625 217.5625 C-32.04007813 216.68078125 -32.45515625 215.7990625 -32.8828125 214.890625 C-37.31335235 205.92342458 -43.87660721 198.83892352 -50.625 191.5625 C-51.11194336 191.0355957 -51.59888672 190.50869141 -52.10058594 189.96582031 C-59.43553288 182.11614025 -67.494686 175.40298505 -76.60546875 169.6953125 C-79.12271074 168.09762717 -81.44489065 166.59664091 -83.625 164.5625 C-84.31873472 160.90462601 -83.89104116 158.75869713 -83.09912109 155.19799805 C-80.25705677 139.39980836 -82.5318313 123.5509679 -87.625 108.5625 C-87.625 107.9025 -87.625 107.2425 -87.625 106.5625 C-88.285 106.5625 -88.945 106.5625 -89.625 106.5625 C-90.01300781 105.70527344 -90.40101563 104.84804687 -90.80078125 103.96484375 C-92.76469178 100.30196136 -95.11024378 97.25145841 -97.8125 94.125 C-98.30298828 93.55515381 -98.79347656 92.98530762 -99.29882812 92.39819336 C-106.20658396 84.48926442 -113.2055416 79.28954438 -122.625 74.5625 C-122.625 73.9025 -122.625 73.2425 -122.625 72.5625 C-124.605 72.2325 -126.585 71.9025 -128.625 71.5625 C-128.625 70.9025 -128.625 70.2425 -128.625 69.5625 C-129.47179321 69.3159668 -129.47179321 69.3159668 -130.33569336 69.06445312 C-137.6768857 66.89754984 -144.9318036 64.4984845 -152.1875 62.0625 C-153.35474609 61.67191406 -154.52199219 61.28132813 -155.72460938 60.87890625 C-157.99510197 60.1190907 -160.26529599 59.35838221 -162.53515625 58.59667969 C-165.22036855 57.69793132 -167.90855057 56.80887516 -170.59765625 55.921875 C-180.4352178 52.6378008 -189.04625504 48.40428687 -197.625 42.5625 C-198.615 41.9025 -199.605 41.2425 -200.625 40.5625 C-200.625 39.9025 -200.625 39.2425 -200.625 38.5625 C-201.615 38.2325 -202.605 37.9025 -203.625 37.5625 C-204.65513277 35.91428756 -205.65614628 34.24746298 -206.625 32.5625 C-207.285 32.2325 -207.945 31.9025 -208.625 31.5625 C-209.3965708 22.73230088 -209.3965708 22.73230088 -206.6875 18.625 C-203.45496815 16.44798876 -200.63608597 15.32246455 -196.921875 14.2421875 C-194.37518184 13.53461574 -194.37518184 13.53461574 -191.0625 12.0625 C-179.11424404 7.56553156 -165.32665228 6.7536883 -152.72485352 5.25488281 C-150.06111272 4.93733462 -147.3987242 4.60986239 -144.73632812 4.28125 C-135.62292621 3.17280485 -126.55332296 2.25819582 -117.38305664 1.79541016 C-114.666254 1.73744512 -114.666254 1.73744512 -112.625 0.5625 C-110.35459654 0.40467149 -108.07963154 0.3114492 -105.8046875 0.24609375 C-105.09576355 0.22522202 -104.3868396 0.20435028 -103.65643311 0.18284607 C-101.27107827 0.11554099 -98.88562421 0.05692481 -96.5 0 C-95.25002228 -0.03126984 -95.25002228 -0.03126984 -93.97479248 -0.06317139 C-62.65223181 -0.829624 -31.32316693 -0.61790226 0 0 Z M115.875 44.4375 C115.0809375 44.59992188 114.286875 44.76234375 113.46875 44.9296875 C111.18153004 45.44110896 111.18153004 45.44110896 109.375 47.5625 C106.97689213 48.29287317 104.62293716 48.92504156 102.1875 49.5 C101.12849487 49.75885986 101.12849487 49.75885986 100.0480957 50.02294922 C93.86582204 51.50856394 87.64267396 52.72136868 81.38671875 53.8515625 C78.21927757 54.41447237 78.21927757 54.41447237 75.375 56.5625 C74.79310734 58.98771494 74.79310734 58.98771494 74.6875 61.6875 C74.58888672 63.05261719 74.58888672 63.05261719 74.48828125 64.4453125 C74.45089844 65.14398438 74.41351563 65.84265625 74.375 66.5625 C72.395 66.5625 70.415 66.5625 68.375 66.5625 C68.045 63.2625 67.715 59.9625 67.375 56.5625 C60.29930568 56.3634961 53.5085625 56.43850668 46.5 57.4375 C18.47778984 61.20607018 -9.95226435 60.96241964 -38.16739655 60.9396553 C-41.34669012 60.93747657 -44.5259677 60.93902313 -47.70526123 60.94088745 C-118.23455415 60.94776836 -118.23455415 60.94776836 -149.625 55.5625 C-151.08220928 55.50157988 -152.54173459 55.47485749 -154 55.5 C-155.794375 55.5309375 -155.794375 55.5309375 -157.625 55.5625 C-154.14312247 57.88375169 -150.75328961 58.71372685 -146.75 59.6875 C-146.04230469 59.86925781 -145.33460938 60.05101562 -144.60546875 60.23828125 C-140.87697827 61.16172489 -137.4692625 61.78863309 -133.625 61.5625 C-133.625 62.2225 -133.625 62.8825 -133.625 63.5625 C-132.73296875 63.82804687 -131.8409375 64.09359375 -130.921875 64.3671875 C-129.75140625 64.72039062 -128.5809375 65.07359375 -127.375 65.4375 C-126.21484375 65.78554687 -125.0546875 66.13359375 -123.859375 66.4921875 C-120.625 67.5625 -120.625 67.5625 -118.390625 68.6953125 C-116.5040575 69.78292387 -116.5040575 69.78292387 -113.625 69.5625 C-113.625 70.2225 -113.625 70.8825 -113.625 71.5625 C-111.315 71.8925 -109.005 72.2225 -106.625 72.5625 C-106.625 73.2225 -106.625 73.8825 -106.625 74.5625 C-105.56539062 74.97242188 -105.56539062 74.97242188 -104.484375 75.390625 C-95.17507768 79.20591079 -86.40748375 84.00241631 -78.5 90.23828125 C-76.7353028 91.75479454 -76.7353028 91.75479454 -74.625 91.5625 C-74.39039063 92.13742188 -74.15578125 92.71234375 -73.9140625 93.3046875 C-72.32923873 96.08053035 -70.44672839 97.63467215 -68 99.6875 C-62.51703256 104.48609125 -56.92280451 109.96689097 -53.625 116.5625 C-52.965 116.5625 -52.305 116.5625 -51.625 116.5625 C-50.965 118.5425 -50.305 120.5225 -49.625 122.5625 C-48.965 122.5625 -48.305 122.5625 -47.625 122.5625 C-47.22667969 123.63371094 -47.22667969 123.63371094 -46.8203125 124.7265625 C-45.58991351 127.64574441 -44.13376052 130.22469765 -42.5 132.9375 C-36.02171387 143.95462693 -30.28868644 154.72817259 -25.99609375 166.78515625 C-24.79755588 170.14901306 -23.43006759 173.41442737 -22 176.6875 C-19.78981712 181.90579122 -18.18548527 187.18318381 -16.71484375 192.65234375 C-15.81940609 195.97851586 -14.76986928 199.24604264 -13.72265625 202.52734375 C-11.41720286 209.9892977 -9.71757257 217.54936462 -8.125 225.1875 C-7.97470337 225.9018219 -7.82440674 226.6161438 -7.66955566 227.35211182 C-4.73785216 241.34574284 -2.436976 255.37842979 -0.625 269.5625 C-0.4914209 270.57183594 -0.3578418 271.58117187 -0.22021484 272.62109375 C2.76446295 295.49748979 3.95906381 318.54784589 5.375 341.5625 C14.91726635 341.84475372 24.14336807 341.10751774 33.59521484 339.96337891 C35.87123476 339.68795563 38.14829059 339.42311314 40.42578125 339.16015625 C49.10810923 338.14538449 57.74608035 336.96725182 66.375 335.5625 C67.035 333.5825 67.695 331.6025 68.375 329.5625 C70.025 329.2325 71.675 328.9025 73.375 328.5625 C73.705 330.2125 74.035 331.8625 74.375 333.5625 C77.89646777 332.90143024 81.30645017 332.0491905 84.75 331.0625 C87.86117009 330.18838963 90.58390133 329.54350897 93.8125 329.25 C98.50607363 328.34422263 102.22877474 326.25916507 106.4375 324.0390625 C108.89883222 322.80185029 111.19634714 321.8850026 113.8125 321.0625 C117.90630493 319.33879266 120.32156489 317.46761012 122.375 313.5625 C123.08836644 309.90112101 123.02872315 306.31119103 122.97627258 302.59072876 C122.98054471 301.48304307 122.98481683 300.37535739 122.98921841 299.23410547 C122.99745665 295.52105659 122.96994742 291.80913629 122.94262695 288.09619141 C122.94121666 285.43521581 122.94178787 282.77430942 122.94483948 280.11334229 C122.94745918 274.38384944 122.93179359 268.65464164 122.90365028 262.92522049 C122.86298674 254.64152601 122.84999018 246.35796913 122.84371033 238.07418565 C122.8327716 224.63385165 122.7995089 211.19366952 122.75219727 197.75341797 C122.70629073 184.69873819 122.6709042 171.64409968 122.6496582 158.58935547 C122.64834459 157.784443 122.64703097 156.97953054 122.64567754 156.15022679 C122.63915228 152.11215161 122.63283376 148.07407615 122.62661803 144.03600049 C122.57479815 110.54472353 122.48674442 77.05363039 122.375 43.5625 C120.09442981 43.5625 118.10692846 43.96647614 115.875 44.4375 Z " fill="#B8B5AC" transform="translate(362.625,135.4375)"/>
<path d="M0 0 C4.32584581 0.02093235 8.65171762 0.029692 12.9776001 0.03967285 C21.37610523 0.06074563 29.77448974 0.09460309 38.1729126 0.1373291 C38.5029126 1.1273291 38.8329126 2.1173291 39.1729126 3.1373291 C37.62258759 4.68765411 36.14786757 4.27722791 33.98980713 4.29504395 C32.64775711 4.31063354 32.64775711 4.31063354 31.27859497 4.32653809 C29.80702438 4.3372937 29.80702438 4.3372937 28.3057251 4.3482666 C26.21359315 4.37403203 24.12147088 4.40059323 22.02935791 4.42785645 C20.92902222 4.44112976 19.82868652 4.45440308 18.69500732 4.46807861 C-3.98342978 4.71801528 -3.98342978 4.71801528 -26.5770874 6.5123291 C-27.56434814 6.62625 -28.55160889 6.7401709 -29.56878662 6.85754395 C-42.65839796 8.4632212 -42.65839796 8.4632212 -54.8270874 13.1373291 C-54.3320874 14.6223291 -54.3320874 14.6223291 -53.8270874 16.1373291 C-51.31606831 17.00309151 -48.97196401 17.6390449 -46.3895874 18.1998291 C-45.73409912 18.36031738 -45.07861084 18.52080566 -44.40325928 18.68615723 C-26.38863834 22.79012851 -7.93974832 22.49896499 10.4229126 22.4498291 C11.76696763 22.44850544 13.11102282 22.44733648 14.45507812 22.44631958 C48.26727307 22.86013754 48.26727307 22.86013754 81.1729126 16.1373291 C81.1729126 14.8173291 81.1729126 13.4973291 81.1729126 12.1373291 C68.23279103 8.94312618 68.23279103 8.94312618 55.02056885 7.50842285 C52.59444023 7.02114543 51.67618778 6.06472581 50.1729126 4.1373291 C50.1729126 3.4773291 50.1729126 2.8173291 50.1729126 2.1373291 C77.32140426 -6.91216812 123.561973 4.41759499 150.9854126 11.1998291 C151.932229 11.43282715 152.87904541 11.6658252 153.85455322 11.90588379 C159.18340356 13.32154374 163.51449574 15.18212605 168.1729126 18.1373291 C167.8429126 19.4573291 167.5129126 20.7773291 167.1729126 22.1373291 C166.52741455 22.28355713 165.8819165 22.42978516 165.21685791 22.58044434 C162.28543925 23.24478328 159.35417454 23.90979905 156.4229126 24.5748291 C155.40713135 24.80492676 154.3913501 25.03502441 153.3447876 25.27209473 C151.87525635 25.60563965 151.87525635 25.60563965 150.3760376 25.94592285 C149.47530518 26.15015869 148.57457275 26.35439453 147.64654541 26.56481934 C146.10158843 26.92239179 144.56032489 27.29683176 143.0256958 27.69641113 C140.39985409 28.32129849 137.80270665 28.41453456 135.1104126 28.5748291 C130.07478714 28.93291802 125.25480548 29.60391313 120.30743408 30.57693481 C87.15136577 36.50462469 52.89538011 36.64106314 19.3369751 36.52844238 C14.20173927 36.51135206 9.06697028 36.52153812 3.9317503 36.53876495 C-22.45505617 36.61368457 -48.55635737 35.62360673 -74.8270874 33.1373291 C-75.95471497 33.03273376 -77.08234253 32.92813843 -78.24414062 32.82037354 C-84.05586501 32.27012392 -89.84917681 31.62772231 -95.6395874 30.8873291 C-96.84506226 30.73791367 -96.84506226 30.73791367 -98.07489014 30.58547974 C-113.03621104 28.70581862 -127.39006766 25.54757864 -141.8270874 21.1373291 C-141.8270874 19.8173291 -141.8270874 18.4973291 -141.8270874 17.1373291 C-138.8570874 16.4773291 -135.8870874 15.8173291 -132.8270874 15.1373291 C-132.8270874 14.4773291 -132.8270874 13.8173291 -132.8270874 13.1373291 C-124.14216135 10.81336268 -115.44806971 9.08175142 -106.5770874 7.6373291 C-105.59965576 7.47724869 -105.59965576 7.47724869 -104.60247803 7.31393433 C-69.71719599 1.61678891 -35.28295663 -0.18967953 0 0 Z " fill="#F7F6F2" transform="translate(306.82708740234375,151.8626708984375)"/>
<path d="M0 0 C-0.66 0.66 -1.32 1.32 -2 2 C-2.46162427 4.43252661 -2.46162427 4.43252661 -2.625 7.125 C-2.69976562 8.03507813 -2.77453125 8.94515625 -2.8515625 9.8828125 C-2.90054688 10.58148438 -2.94953125 11.28015625 -3 12 C-2.01 12.33 -1.02 12.66 0 13 C1.6875 16.0625 1.6875 16.0625 3 19 C2.34 19 1.68 19 1 19 C0.67 18.34 0.34 17.68 0 17 C-0.99 16.67 -1.98 16.34 -3 16 C-3 15.01 -3 14.02 -3 13 C-4.65 13.33 -6.3 13.66 -8 14 C-8.83916264 30.81946396 -9.15840729 47.59778365 -9.17700195 64.43652344 C-9.18328718 66.98526599 -9.18993568 69.53400767 -9.19691467 72.08274841 C-9.21587984 79.63083491 -9.22668604 87.17891606 -9.23564246 94.72702014 C-9.23917091 97.5782944 -9.24331372 100.4295676 -9.24748212 103.28084098 C-9.26588576 115.87793162 -9.28164422 128.4750224 -9.28938007 141.07212448 C-9.2912892 144.13060253 -9.2932097 147.18908057 -9.29516602 150.24755859 C-9.29564976 151.00750654 -9.2961335 151.76745449 -9.2966319 152.55043116 C-9.30497532 164.92641369 -9.330412 177.30230097 -9.36274669 189.6782417 C-9.39577847 202.4255626 -9.41382362 215.17283475 -9.41702431 227.92019868 C-9.41918849 235.06182736 -9.42792855 242.20331528 -9.45348549 249.34490204 C-9.47739328 256.03956332 -9.48104367 262.73392627 -9.47072411 269.42863655 C-9.47022643 271.88774777 -9.47661443 274.34687114 -9.49028015 276.80594444 C-9.50785015 280.15355283 -9.50096695 283.50023203 -9.48774719 286.84783936 C-9.49871644 287.82757272 -9.50968568 288.80730609 -9.52098733 289.81672835 C-9.54041761 295.12703396 -9.54041761 295.12703396 -6.9695158 299.63451004 C-6.31957559 300.08512173 -5.66963537 300.53573341 -5 301 C-3.88625 300.195625 -3.88625 300.195625 -2.75 299.375 C-1.38875 298.694375 -1.38875 298.694375 0 298 C1.875 298.625 1.875 298.625 4 300 C9.26512251 302.40422686 14.60408061 304.27377058 20.125 306 C20.9610376 306.26200195 21.7970752 306.52400391 22.65844727 306.79394531 C35.19803539 310.66414393 48.76527735 314.6015783 62 314 C62.33 314.66 62.66 315.32 63 316 C65.64204079 316.43331876 68.21415607 316.75396306 70.875 317 C75.63691542 317.46415782 80.31038827 318.03070231 85.0078125 318.953125 C91.84066629 320.23880691 98.73213562 320.84271582 105.64474487 321.51708984 C119.49064822 322.88630521 133.22299226 324.65234347 146.9375 327 C147.650271 327.11952026 148.36304199 327.23904053 149.09741211 327.36218262 C160.71887518 329.32651602 171.83073292 332.23613578 183 336 C184.50765997 336.50306153 186.01548597 337.00562561 187.5234375 337.5078125 C192.015625 339.00520833 196.5078125 340.50260417 201 342 C199.94105113 334.8171276 198.87398897 327.63549139 197.80175781 320.45458984 C197.43929195 318.02093632 197.07856084 315.58702367 196.71972656 313.15283203 C193.99146919 294.65707604 190.91939512 276.30072582 186.5 258.125 C186.29060791 257.25770264 186.08121582 256.39040527 185.86547852 255.49682617 C183.23833278 244.73381019 180.39939636 234.19266086 176 224 C175.24396484 222.17855469 175.24396484 222.17855469 174.47265625 220.3203125 C166.7583689 201.95136449 154.66511841 176.33255921 136 167 C136 166.34 136 165.68 136 165 C135.34 164.79375 134.68 164.5875 134 164.375 C129.92819814 162.50875748 126.31203002 160.02438473 123 157 C123 156.34 123 155.68 123 155 C121.6696875 154.62875 121.6696875 154.62875 120.3125 154.25 C116.70851205 152.89000455 114.57530646 151.87828369 112 149 C111.40695802 145.72479089 111.53116751 142.53257387 112.5065918 139.34399414 C113.19597117 136.06901572 113.16260956 132.82759319 113.16796875 129.49609375 C113.17129715 128.77639908 113.17462555 128.05670441 113.17805481 127.31520081 C113.18310474 125.79811236 113.18546373 124.28101286 113.18530273 122.76391602 C113.18749572 120.44203537 113.20568903 118.1206252 113.22460938 115.79882812 C113.2275424 114.32291829 113.2295278 112.8470062 113.23046875 111.37109375 C113.24124702 110.33038979 113.24124702 110.33038979 113.25224304 109.2686615 C113.23487069 105.61225036 113.08774094 104.13161141 111 101 C110.95875 100.01 110.9175 99.02 110.875 98 C110.32640684 92.95509425 106.93437643 89.43122348 103.91015625 85.55078125 C102.30189274 83.40314102 101.0902643 81.43739715 100 79 C100.99 77.515 100.99 77.515 102 76 C102.66 76 103.32 76 104 76 C103.67 74.02 103.34 72.04 103 70 C106.75103553 71.50884351 108.68443391 73.68014525 111.1875 76.8125 C111.88230469 77.66457031 112.57710938 78.51664062 113.29296875 79.39453125 C115.02289914 82.03495132 115.62652827 83.89516786 116 87 C116.66 87 117.32 87 118 87 C118.81391255 89.58289592 119.62617929 92.16628997 120.4375 94.75 C120.78264648 95.84441406 120.78264648 95.84441406 121.13476562 96.9609375 C121.35712891 97.66992188 121.57949219 98.37890625 121.80859375 99.109375 C122.01282959 99.75874023 122.21706543 100.40810547 122.42749023 101.07714844 C122.61641846 101.71168945 122.80534668 102.34623047 123 103 C123.1868335 103.6185083 123.37366699 104.2370166 123.56616211 104.87426758 C124.11899819 107.58307105 124.12980392 110.13766914 124.1328125 112.90234375 C124.13410156 114.03994141 124.13539063 115.17753906 124.13671875 116.34960938 C124.13285156 117.53361328 124.12898437 118.71761719 124.125 119.9375 C124.12886719 121.11763672 124.13273438 122.29777344 124.13671875 123.51367188 C124.13478516 125.22200195 124.13478516 125.22200195 124.1328125 126.96484375 C124.13168457 128.0024585 124.13055664 129.04007324 124.12939453 130.10913086 C124.00637359 132.85760429 123.60794167 135.32242801 123 138 C122.16654185 141.45704496 122.16654185 141.45704496 123 145 C124.88855316 146.73766361 126.91491224 147.92240478 129.12109375 149.234375 C147.16163063 160.29858487 166.47233466 178.38254566 175 198 C175.91648214 199.72926447 176.83317323 201.45841822 177.75 203.1875 C189.92728221 227.63431656 196.44518744 254.39054898 201.2890625 281.1171875 C201.74457927 283.60500986 202.2170121 286.08983002 202.7109375 288.5703125 C204.6908525 298.59762396 206.15225709 308.6781817 207.55444336 318.80175781 C208.32647903 324.36480609 209.14286697 329.90527985 210.11328125 335.4375 C210.81851611 339.58707301 211.2255107 343.52855072 211.125 347.75 C211.10695313 348.75546875 211.08890625 349.7609375 211.0703125 350.796875 C211.04710937 351.52390625 211.02390625 352.2509375 211 353 C210.34 353 209.68 353 209 353 C209 353.66 209 354.32 209 355 C204.35230087 354.53523009 200.96409749 353.14103317 196.9296875 350.9375 C194.96640309 349.98367761 193.12919904 349.45422913 191 349 C191 348.34 191 347.68 191 347 C190.39671875 346.95101563 189.7934375 346.90203125 189.171875 346.8515625 C188.37265625 346.77679688 187.5734375 346.70203125 186.75 346.625 C185.96109375 346.55539062 185.1721875 346.48578125 184.359375 346.4140625 C182 346 182 346 180.13598633 345.03442383 C177.87563696 343.93977298 175.93201154 343.47660643 173.46484375 343.03515625 C167.79753605 341.97117097 162.18389898 340.72010762 156.5625 339.4375 C155.09393555 339.10588867 155.09393555 339.10588867 153.59570312 338.76757812 C152.65791016 338.55423828 151.72011719 338.34089844 150.75390625 338.12109375 C149.91158447 337.9295874 149.0692627 337.73808105 148.20141602 337.54077148 C146 337 146 337 143 336 C141.63547833 335.82291541 140.26583233 335.6835012 138.89453125 335.5703125 C137.68071777 335.46299805 137.68071777 335.46299805 136.44238281 335.35351562 C135.57452148 335.27810547 134.70666016 335.20269531 133.8125 335.125 C127.68758649 334.56403881 121.76456038 333.83059548 115.75 332.5 C105.84126469 330.46691234 95.73297563 330.1638522 85.65332031 329.64648438 C84.61331123 329.59133163 84.61331123 329.59133163 83.55229187 329.5350647 C81.63415667 329.43485938 79.71564261 329.34198578 77.79711914 329.24951172 C75 329 75 329 74 328 C71.18947702 327.46075471 68.38561217 326.96325642 65.5625 326.5 C57.26278928 325.13139464 57.26278928 325.13139464 55 324 C52.47947449 323.67947074 49.9635309 323.39308143 47.4375 323.125 C42.1160082 322.51254307 37.2944547 321.69495989 32.265625 319.78515625 C29.40410261 318.79349073 26.51846276 318.1564987 23.5625 317.5 C9.23951915 314.2966167 9.23951915 314.2966167 3 311 C3 310.34 3 309.68 3 309 C1.7315625 308.690625 1.7315625 308.690625 0.4375 308.375 C-4.15309835 306.53876066 -8.72894274 303.54211452 -11 299 C-11.09374144 297.3896704 -11.12373424 295.77545299 -11.12304783 294.16239738 C-11.12503888 293.13429699 -11.12702993 292.10619659 -11.12908131 291.04694164 C-11.12616847 289.90882852 -11.12325563 288.77071541 -11.12025452 287.59811401 C-11.12110894 286.39584077 -11.12196337 285.19356753 -11.12284368 283.95486176 C-11.12421041 280.60729613 -11.12106843 277.25978843 -11.11606562 273.91222978 C-11.11176019 270.3062326 -11.11320761 266.70023731 -11.1139679 263.09423828 C-11.11449307 256.84313403 -11.11134693 250.5920402 -11.10573006 244.34093857 C-11.0976142 235.30281754 -11.09499975 226.26470157 -11.09374207 217.2265773 C-11.09155168 202.56397185 -11.08489196 187.90137196 -11.07543945 173.23876953 C-11.06626499 158.99267606 -11.05918432 144.7465841 -11.05493164 130.50048828 C-11.05466892 129.62283703 -11.05440619 128.74518578 -11.05413551 127.84093903 C-11.0528305 123.43816336 -11.05156679 119.03538768 -11.05032361 114.63261199 C-11.03995141 78.08840407 -11.02233346 41.54420247 -11 5 C-9.68 4.34 -8.36 3.68 -7 3 C-7 2.34 -7 1.68 -7 1 C-3.375 -1.125 -3.375 -1.125 0 0 Z " fill="#8B877D" transform="translate(157,155)"/>
<path d="M0 0 C0.87239445 -0.00052242 1.74478889 -0.00104485 2.64361954 -0.0015831 C27.90786962 -0.01545625 53.14549098 -0.0042052 78.3125 2.5 C78.96661865 2.56408051 79.6207373 2.62816101 80.29467773 2.69418335 C84.4414496 3.10150416 88.58600502 3.52736557 92.72949219 3.96679688 C94.11802823 4.1139179 95.50670127 4.25975161 96.89550781 4.40429688 C117.99231904 6.60208763 138.94790445 9.36697582 158.8125 17.1875 C158.8125 17.8475 158.8125 18.5075 158.8125 19.1875 C160.4625 19.5175 162.1125 19.8475 163.8125 20.1875 C163.8125 21.5075 163.8125 22.8275 163.8125 24.1875 C163.1525 24.1875 162.4925 24.1875 161.8125 24.1875 C161.8125 24.8475 161.8125 25.5075 161.8125 26.1875 C155.85546875 28.04296875 155.85546875 28.04296875 153.8125 28.1875 C152.33984375 26.859375 152.33984375 26.859375 150.8125 25.1875 C136.26121566 18.07413981 118.67374169 16.32769257 102.8125 14.1875 C102.13396973 14.09227051 101.45543945 13.99704102 100.75634766 13.89892578 C83.74682544 11.51215446 66.61538803 10.03309462 49.4375 9.875 C48.40302734 9.85743652 47.36855469 9.83987305 46.30273438 9.82177734 C45.34947266 9.82258301 44.39621094 9.82338867 43.4140625 9.82421875 C42.57182129 9.82123779 41.72958008 9.81825684 40.86181641 9.81518555 C39.84740479 9.9994812 39.84740479 9.9994812 38.8125 10.1875 C38.1525 11.1775 37.4925 12.1675 36.8125 13.1875 C39.08153513 14.32201756 40.83898043 14.52669238 43.35546875 14.8359375 C44.26490234 14.95453125 45.17433594 15.073125 46.11132812 15.1953125 C48.01691863 15.43753766 49.92316942 15.674631 51.83007812 15.90625 C57.33302894 16.63429698 61.83056369 17.7206491 66.8125 20.1875 C66.8125 21.5075 66.8125 22.8275 66.8125 24.1875 C59.57085091 27.51566204 52.85243716 29.16191858 44.9375 29.9375 C43.10396973 30.11962036 43.10396973 30.11962036 41.23339844 30.30541992 C26.88568173 31.56466791 12.46456243 31.48269363 -1.92716217 31.49757385 C-3.9164311 31.49997457 -5.90569562 31.50540321 -7.8949585 31.51086426 C-25.63477253 31.53700416 -43.33674871 31.46980872 -60.6875 27.3125 C-61.40035156 27.16425781 -62.11320312 27.01601562 -62.84765625 26.86328125 C-67.83510072 25.69922875 -67.83510072 25.69922875 -69.65625 23.0546875 C-69.8315625 22.43851563 -70.006875 21.82234375 -70.1875 21.1875 C-46.72210628 5.66831729 -2.97403464 11.47118086 23.8125 11.1875 C23.4825 10.5275 23.1525 9.8675 22.8125 9.1875 C13.68223733 9.14037455 4.55201886 9.10523626 -4.57834053 9.08387566 C-8.82164035 9.07360427 -13.06485479 9.0597661 -17.30810547 9.03662109 C-44.01209383 8.89503523 -70.53955478 9.46261841 -97.0625 12.9375 C-98.99246826 13.18258301 -98.99246826 13.18258301 -100.96142578 13.43261719 C-114.92131654 15.25869365 -128.73133793 17.9328098 -142.53076172 20.70019531 C-145.1875 21.1875 -145.1875 21.1875 -147.1875 21.1875 C-147.1875 21.8475 -147.1875 22.5075 -147.1875 23.1875 C-147.81398437 23.38085938 -148.44046875 23.57421875 -149.0859375 23.7734375 C-149.90320313 24.03382813 -150.72046875 24.29421875 -151.5625 24.5625 C-152.37460938 24.81773437 -153.18671875 25.07296875 -154.0234375 25.3359375 C-156.35209185 26.08604283 -156.35209185 26.08604283 -158.1875 28.1875 C-160.8275 26.5375 -163.4675 24.8875 -166.1875 23.1875 C-164.03709784 18.88669568 -163.32727736 18.21432581 -159.1875 16.1875 C-156.85295607 15.43606032 -154.49615808 14.75139149 -152.125 14.125 C-147.64244823 13.03548064 -147.64244823 13.03548064 -143.453125 11.20117188 C-140.29091901 9.7863573 -137.06483836 9.43929641 -133.66015625 9.00390625 C-132.91656357 8.90287094 -132.17297089 8.80183563 -131.40684509 8.69773865 C-129.02207375 8.37512628 -126.63614582 8.06226703 -124.25 7.75 C-121.93845947 7.44093405 -119.62719852 7.12984002 -117.31596375 6.8184967 C-115.73970165 6.60688256 -114.16320869 6.39698167 -112.58650208 6.18870544 C-108.3644374 5.62852802 -104.14931182 5.03847994 -99.93823242 4.40063477 C-88.74748911 2.7123722 -77.6816171 1.49425576 -66.375 1 C-65.53029144 0.96047211 -64.68558289 0.92094421 -63.8152771 0.88021851 C-42.55821155 -0.07726803 -21.27384947 0.00288091 0 0 Z " fill="#DEDCD3" transform="translate(321.1875,143.8125)"/>
<path d="M0 0 C2.84550012 0.66010476 5.52325999 1.51724966 8.25 2.5625 C8.95640625 2.83191406 9.6628125 3.10132813 10.390625 3.37890625 C10.92171875 3.58386719 11.4528125 3.78882813 12 4 C12 4.66 12 5.32 12 6 C12.58523438 6.27714844 13.17046875 6.55429688 13.7734375 6.83984375 C24.02451714 12.18119577 34.25190834 21.68227079 41 31 C41 31.66 41 32.32 41 33 C41.66 33 42.32 33 43 33 C43.495 34.98 43.495 34.98 44 37 C44.66 37 45.32 37 46 37 C47.51064595 39.09677658 48.89288817 41.18146644 50.25 43.375 C50.65114014 44.01260254 51.05228027 44.65020508 51.46557617 45.30712891 C52.65206533 47.19970873 53.82756099 49.09869218 55 51 C55.88365234 52.423125 55.88365234 52.423125 56.78515625 53.875 C59.79313017 58.79853788 62.54832602 63.77731634 65 69 C65.49113281 70.02673828 65.49113281 70.02673828 65.9921875 71.07421875 C68.42594562 76.32849501 70.26759829 81.67083393 71.97265625 87.203125 C72.90564383 90.01788864 72.90564383 90.01788864 74.46484375 92.421875 C79.22483125 100.41574714 81.30197563 110.63486267 83.26171875 119.65625 C84.05984028 123.27102265 84.96003995 126.85056498 85.875 130.4375 C86.39872952 132.5324181 86.9185469 134.62826149 87.43652344 136.72460938 C87.82204211 138.28138321 88.21087286 139.83733956 88.60253906 141.39257812 C91.51475494 153.05055654 93.70479959 164.73072384 95.375 176.625 C95.64473633 178.52028442 95.64473633 178.52028442 95.91992188 180.45385742 C96.07783203 181.6369751 96.23574219 182.82009277 96.3984375 184.0390625 C96.53942871 185.09303223 96.68041992 186.14700195 96.82568359 187.23291016 C96.98753876 189.80219091 96.80074094 191.57595862 96 194 C94.3285057 189.09319004 92.73814049 184.17965698 91.2734375 179.20703125 C88.04982619 168.30158655 84.6607638 157.54048915 80.375 147 C80.02743652 146.13608643 79.67987305 145.27217285 79.32177734 144.38208008 C77.10131256 139.07189076 74.45973555 134.20295179 71.42602539 129.31347656 C70.20665297 127.33525826 69.07827872 125.33950897 67.97265625 123.296875 C65.76261016 119.60325342 63.26688036 116.47760647 60.4375 113.25 C59.9115625 112.64583252 59.385625 112.04166504 58.84375 111.41918945 C49.63136241 100.94065088 39.91083697 91.58241163 28.01953125 84.1328125 C25.50228926 82.53512717 23.18010935 81.03414091 21 79 C20.30626528 75.34212601 20.73395884 73.19619713 21.52587891 69.63549805 C24.36794323 53.83730836 22.0931687 37.9884679 17 23 C17 22.34 17 21.68 17 21 C16.34 21 15.68 21 15 21 C14.62101562 20.14921875 14.24203125 19.2984375 13.8515625 18.421875 C11.75743872 14.5517222 9.27214883 11.53192641 6.375 8.25 C1.10472973 2.20945946 1.10472973 2.20945946 0 0 Z " fill="#F1F0EC" transform="translate(258,221)"/>
<path d="M0 0 C0.33 0 0.66 0 1 0 C1.06864043 35.71261683 1.12151572 71.42522211 1.15319599 107.1378913 C1.15694819 111.35242569 1.16083115 115.56695995 1.16479492 119.78149414 C1.16558185 120.62054534 1.16636878 121.45959654 1.16717956 122.32407353 C1.1802397 135.91658776 1.20389689 149.50906399 1.23145839 163.10155567 C1.25949568 177.04480045 1.27617271 190.98802531 1.28226548 204.93129712 C1.28638541 213.53765708 1.29940601 222.14390964 1.3237494 230.75023655 C1.33958591 236.64890449 1.3444051 242.54751678 1.34050413 248.44620445 C1.33857932 251.85137063 1.34156608 255.25634893 1.35761642 258.66148186 C1.3724797 262.35143292 1.36897573 266.04091956 1.36076355 269.73088074 C1.36950207 270.809673 1.3782406 271.88846527 1.38724393 272.9999482 C1.33399602 281.81456179 1.33399602 281.81456179 -2 286 C-2.474375 286.9075 -2.94875 287.815 -3.4375 288.75 C-5 291 -5 291 -7.1875 291.8125 C-8.0846875 291.9053125 -8.0846875 291.9053125 -9 292 C-9 292.66 -9 293.32 -9 294 C-10.32 294 -11.64 294 -13 294 C-13 294.66 -13 295.32 -13 296 C-13.84304688 296.34933594 -14.68609375 296.69867188 -15.5546875 297.05859375 C-16.65039062 297.51363281 -17.74609375 297.96867187 -18.875 298.4375 C-19.96554687 298.88996094 -21.05609375 299.34242188 -22.1796875 299.80859375 C-23.80558624 300.49543463 -25.42131774 301.21065887 -27 302 C-28.95377733 302.32076941 -30.91330758 302.60685499 -32.875 302.875 C-40.10535324 303.95403964 -47.08174036 305.62777839 -54.12109375 307.59179688 C-68.82842503 311.67165522 -83.1922403 313.08700609 -98.42236328 313.78222656 C-101.11616319 313.90803243 -101.11616319 313.90803243 -104 315 C-110.98658691 315.94161987 -117.95998242 316.13744069 -125 316 C-125 313.36 -125 310.72 -125 308 C-122.6963742 307.71204677 -120.39274645 307.42410915 -118.08911133 307.13623047 C-116.00037694 306.87507677 -113.91167332 306.6136769 -111.82299805 306.35205078 C-106.09569533 305.63505001 -100.3680451 304.92107139 -94.63943481 304.21459961 C-91.74395521 303.85732594 -88.84865501 303.49861038 -85.95336914 303.13977051 C-84.53125106 302.96389104 -83.10905082 302.78867458 -81.68676758 302.61413574 C-79.672478 302.36686417 -77.65849854 302.11707047 -75.64453125 301.8671875 C-73.90200073 301.65231689 -73.90200073 301.65231689 -72.12426758 301.43310547 C-69.38541482 301.05342861 -66.70296955 300.57800942 -64 300 C-63.34 298.02 -62.68 296.04 -62 294 C-60.35 294 -58.7 294 -57 294 C-56.67 295.65 -56.34 297.3 -56 299 C-55.00355469 298.53207031 -54.00710938 298.06414062 -52.98046875 297.58203125 C-49.15166312 295.94029018 -45.4409661 295.29136519 -41.3125 294.6875 C-34.75453541 293.61072845 -29.48194062 291.64898075 -23.625 288.41015625 C-21.26053325 287.13995908 -19.04604899 286.25654149 -16.5 285.4375 C-12.37581524 283.7436384 -11.24616055 282.83361601 -9 279 C-8.40544419 275.34657622 -8.45364961 271.7293628 -8.48101807 268.03459167 C-8.47351681 266.91550976 -8.46601556 265.79642784 -8.458287 264.64343435 C-8.43795479 260.88604444 -8.44612378 257.12925479 -8.45410156 253.37182617 C-8.44536956 250.68144518 -8.43506062 247.9911134 -8.42277527 245.30075073 C-8.39945715 239.5047613 -8.39071498 233.708897 -8.39188385 227.91286278 C-8.39355274 219.53281077 -8.37322197 211.15292564 -8.34752855 202.77291814 C-8.30643955 189.17682661 -8.28313261 175.58076507 -8.27099609 161.98461914 C-8.25916884 148.77755855 -8.2389745 135.57055445 -8.20751953 122.36352539 C-8.20558343 121.54938922 -8.20364733 120.73525304 -8.20165256 119.89644607 C-8.19188802 115.81214745 -8.1819589 111.72784925 -8.17194796 107.64355123 C-8.0891154 73.76239196 -8.03513626 39.88124215 -8 6 C-7.195625 5.71125 -6.39125 5.4225 -5.5625 5.125 C-2.8673532 4.26737432 -2.8673532 4.26737432 -2 2 C-1.34 2 -0.68 2 0 2 C0 1.34 0 0.68 0 0 Z " fill="#9C9486" transform="translate(493,170)"/>
<path d="M0 0 C0.11442402 34.29423831 0.20253797 68.58843306 0.25532665 102.882821 C0.26158024 106.9308328 0.26805185 110.97884423 0.2746582 115.02685547 C0.27662553 116.23569366 0.27662553 116.23569366 0.2786326 117.46895282 C0.300394 130.52087478 0.33981955 143.57268671 0.38576398 156.62454338 C0.43250823 170.01521244 0.46029109 183.40582384 0.47044247 196.79657114 C0.47730588 205.0606064 0.49898931 213.32433069 0.53958233 221.58827023 C0.56599567 227.25382656 0.57400423 232.91922193 0.56750689 238.58483537 C0.56430168 241.85460227 0.57196841 245.12371021 0.59602737 248.39340591 C0.62084008 251.93878334 0.61494652 255.48282148 0.60127258 259.02822876 C0.62311889 260.57784725 0.62311889 260.57784725 0.64540654 262.15877116 C0.59776425 266.7169247 0.53398322 269.96489055 -2.40476704 273.59589195 C-6.27723017 277.18316905 -6.27723017 277.18316905 -9 278 C-9.99 277.67 -10.98 277.34 -12 277 C-12 186.58 -12 96.16 -12 3 C-9.69 2.34 -7.38 1.68 -5 1 C-2 0 -2 0 0 0 Z " fill="#D4D2C7" transform="translate(485,179)"/>
<path d="M0 0 C0.89084827 0.44978749 0.89084827 0.44978749 1.79969347 0.9086616 C3.58474951 1.79403833 5.39192977 2.63471036 7.20490456 3.46141434 C10.31274368 6.28404276 10.43761559 6.70615063 10.73828697 10.66202927 C10.76356644 12.64698994 10.75529654 14.63253622 10.7215271 16.61737061 C10.72665365 17.71109679 10.7317802 18.80482296 10.7370621 19.93169236 C10.74697325 23.60967717 10.71389755 27.28603279 10.68115234 30.96386719 C10.67946055 33.59496522 10.68040863 36.22606609 10.68380737 38.85716248 C10.68695456 44.52835822 10.66811928 50.19914001 10.63438034 55.87023163 C10.58563159 64.06961833 10.56999313 72.26880473 10.56245239 80.46832064 C10.54931841 93.77114887 10.50938295 107.07375644 10.45263672 120.37646484 C10.39756821 133.29930517 10.35509496 146.22208557 10.32958984 159.14501953 C10.3280135 159.94149646 10.32643716 160.73797338 10.32481305 161.55858597 C10.31698287 165.55425008 10.30940061 169.54991462 10.30194163 173.54557943 C10.23973442 206.6972136 10.13404966 239.84857729 10 273 C5.5655502 272.49320574 2.9274342 271.42524977 0 268 C-0.7457899 264.45412495 -0.65228303 260.95612464 -0.60127258 257.34466553 C-0.60554471 256.2468558 -0.60981683 255.14904606 -0.61421841 254.01796937 C-0.62247745 250.3263478 -0.59491335 246.63585345 -0.56762695 242.94433594 C-0.56621711 240.3033593 -0.56678682 237.66245247 -0.56983948 235.02148438 C-0.57246213 229.32906092 -0.55676575 223.63692386 -0.52865028 217.94457245 C-0.48802667 209.71442396 -0.47499427 201.48441405 -0.46871033 193.25417617 C-0.45776532 179.90146861 -0.42448562 166.54891372 -0.37719727 153.19628906 C-0.33130695 140.22494267 -0.29591249 127.25363773 -0.2746582 114.28222656 C-0.27268778 113.08303068 -0.27268778 113.08303068 -0.27067754 111.85960862 C-0.26415239 107.84896032 -0.25783384 103.83831173 -0.25161803 99.82766294 C-0.19977862 66.55166415 -0.11170783 33.27585249 0 0 Z " fill="#CDCBC2" transform="translate(155,183)"/>
<path d="M0 0 C1.42419046 -0.00391008 2.8483798 -0.00824924 4.27256775 -0.01298523 C7.23472903 -0.02036743 10.19677099 -0.02021696 13.15893555 -0.01489258 C16.14216239 -0.01027483 19.12498026 -0.0171404 22.1081543 -0.03540039 C73.3576584 -0.34620868 73.3576584 -0.34620868 87.58984375 7.30078125 C87.58984375 8.62078125 87.58984375 9.94078125 87.58984375 11.30078125 C80.34819466 14.62894329 73.62978091 16.27519983 65.71484375 17.05078125 C63.88131348 17.23290161 63.88131348 17.23290161 62.01074219 17.41870117 C47.66302548 18.67794916 33.24190618 18.59597488 18.85018158 18.6108551 C16.86091265 18.61325582 14.87164813 18.61868446 12.88238525 18.62414551 C-4.85742878 18.65028541 -22.55940496 18.58308997 -39.91015625 14.42578125 C-40.62300781 14.27753906 -41.33585937 14.12929687 -42.0703125 13.9765625 C-47.05775697 12.81251 -47.05775697 12.81251 -48.87890625 10.16796875 C-49.05421875 9.55179688 -49.22953125 8.935625 -49.41015625 8.30078125 C-36.01806741 -0.48854214 -15.5335571 -0.01080049 0 0 Z " fill="#787261" transform="translate(300.41015625,156.69921875)"/>
<path d="M0 0 C0.792285 -0.00175232 1.58457001 -0.00350464 2.40086365 -0.00531006 C5.03541219 -0.00972975 7.66989406 -0.00678599 10.30444336 -0.00341797 C12.14416008 -0.00409198 13.98387672 -0.00506281 15.82359314 -0.00631714 C19.69490398 -0.00779508 23.56619183 -0.00564017 27.4375 -0.00097656 C32.35250513 0.00466095 37.26745492 0.00148084 42.18245792 -0.00454903 C45.99279682 -0.00820361 49.80312313 -0.00699284 53.61346245 -0.00442123 C55.42199142 -0.00376227 57.2305216 -0.00454356 59.03904915 -0.00690079 C68.04436215 -0.01604526 77.02380934 0.07634511 86.01708984 0.57519531 C86.74280465 0.61391691 87.46851946 0.65263851 88.21622562 0.69253349 C93.20699563 1.00460305 93.20699563 1.00460305 94.33178711 2.12939453 C96.46742944 2.35989087 98.61012387 2.52548039 100.75366211 2.66455078 C101.4094928 2.70752792 102.06532349 2.75050507 102.74102783 2.79478455 C104.13978799 2.88524035 105.53870168 2.97334702 106.93774414 3.05932617 C109.03180937 3.18880436 111.12511266 3.32741091 113.21850586 3.46728516 C120.71832042 3.9500977 128.14945697 4.20194268 135.66870117 3.96704102 C138.46311169 4.13740066 139.90666179 4.82022484 142.33178711 6.12939453 C143.40428711 6.12939453 144.47678711 6.12939453 145.58178711 6.12939453 C148.6300582 6.12939453 150.38949664 6.32124746 153.20678711 7.12939453 C157.60465792 8.35389974 161.79702266 8.31834305 166.33178711 8.12939453 C166.66178711 8.78939453 166.99178711 9.44939453 167.33178711 10.12939453 C169.92347747 10.67786854 172.46525597 11.11809122 175.08178711 11.50439453 C190.42667043 13.99907497 190.42667043 13.99907497 197.33178711 17.12939453 C197.66178711 18.11939453 197.99178711 19.10939453 198.33178711 20.12939453 C200.31901979 20.8332061 202.31956663 21.50057563 204.33178711 22.12939453 C204.66178711 22.78939453 204.99178711 23.44939453 205.33178711 24.12939453 C203.35178711 23.79939453 201.37178711 23.46939453 199.33178711 23.12939453 C199.33178711 22.46939453 199.33178711 21.80939453 199.33178711 21.12939453 C197.68178711 21.12939453 196.03178711 21.12939453 194.33178711 21.12939453 C194.33178711 20.46939453 194.33178711 19.80939453 194.33178711 19.12939453 C191.81204458 18.47904082 189.29112776 17.8340196 186.76928711 17.19189453 C186.06481445 17.00949219 185.3603418 16.82708984 184.63452148 16.63916016 C181.28131544 15.78926922 178.05295157 15.09157141 174.61694336 14.62548828 C171.51790157 14.15749981 169.2158385 13.29027056 166.33178711 12.12939453 C152.85691822 9.69172981 138.96707371 9.14388595 125.33178711 8.12939453 C125.33178711 7.46939453 125.33178711 6.80939453 125.33178711 6.12939453 C124.17420898 6.14099609 123.01663086 6.15259766 121.82397461 6.16455078 C120.28491373 6.1739353 118.7458511 6.18303479 117.20678711 6.19189453 C116.0659668 6.20446289 116.0659668 6.20446289 114.90209961 6.21728516 C114.15444336 6.22050781 113.40678711 6.22373047 112.63647461 6.22705078 C111.61529541 6.23490601 111.61529541 6.23490601 110.57348633 6.24291992 C108.33178711 6.12939453 108.33178711 6.12939453 105.65014648 5.64306641 C101.4010101 4.9853131 97.22723045 4.89585466 92.93334961 4.81298828 C92.00721863 4.79211655 91.08108765 4.77124481 90.12689209 4.7497406 C87.07027719 4.6832244 84.01358538 4.62433335 80.95678711 4.56689453 C79.9000177 4.54604797 78.84324829 4.52520142 77.75445557 4.50372314 C46.65524809 3.8992155 15.55371825 3.78896391 -15.54321289 4.56689453 C-16.36283508 4.58645203 -17.18245728 4.60600952 -18.0269165 4.62615967 C-20.30079166 4.68248125 -22.57431573 4.7460507 -24.84790039 4.81298828 C-26.12391113 4.849646 -27.39992188 4.88630371 -28.71459961 4.92407227 C-31.59863242 4.93455848 -31.59863242 4.93455848 -33.66821289 6.12939453 C-35.10374554 6.30386808 -36.54567288 6.42711863 -37.98852539 6.52392578 C-38.90053711 6.59023193 -39.81254883 6.65653809 -40.75219727 6.72485352 C-42.2575 6.83228882 -42.2575 6.83228882 -43.79321289 6.94189453 C-53.95330553 7.73047403 -64.0581399 8.8038376 -74.16821289 10.06689453 C-74.85614929 10.15261719 -75.54408569 10.23833984 -76.25286865 10.32666016 C-85.21072245 11.45337428 -94.08342402 12.76369564 -102.90258789 14.71142578 C-105.57780056 15.11573052 -107.14675915 15.02903943 -109.66821289 14.12939453 C-100.17193891 10.97718667 -91.63931852 9.97112301 -81.66821289 10.12939453 C-81.66821289 9.46939453 -81.66821289 8.80939453 -81.66821289 8.12939453 C-79.35821289 8.12939453 -77.04821289 8.12939453 -74.66821289 8.12939453 C-74.66821289 7.46939453 -74.66821289 6.80939453 -74.66821289 6.12939453 C-74.01594727 6.14099609 -73.36368164 6.15259766 -72.69165039 6.16455078 C-66.74023971 6.22599602 -61.36405087 6.02800719 -55.66821289 4.12939453 C-53.18529664 3.941159 -50.71730489 3.80039231 -48.23071289 3.69189453 C-39.70310422 3.26587513 -31.18591943 2.72051673 -22.66821289 2.12939453 C-21.42112549 2.04633057 -20.17403809 1.9632666 -18.88916016 1.87768555 C-17.72312256 1.79574951 -16.55708496 1.71381348 -15.35571289 1.62939453 C-14.30770508 1.55720703 -13.25969727 1.48501953 -12.17993164 1.41064453 C-7.99409346 0.94193481 -4.37986207 -0.01179654 0 0 Z " fill="#EB9F63" transform="translate(281.668212890625,131.87060546875)"/>
<path d="M0 0 C0.33 0 0.66 0 1 0 C1.33 96.69 1.66 193.38 2 293 C2.99 293.33 3.98 293.66 5 294 C5.495 295.485 5.495 295.485 6 297 C2.94162714 295.94538867 2.03641898 295.05934946 0.3125 292.25 C-2.28538982 285.81712996 -2.14366941 279.46834853 -2.12939453 272.63745117 C-2.13112136 271.59655586 -2.13284819 270.55566055 -2.13462734 269.48322296 C-2.13899069 266.00312239 -2.13601849 262.52307 -2.1328125 259.04296875 C-2.13387185 256.55743901 -2.13525787 254.07190939 -2.13694763 251.58638 C-2.13976953 244.85623107 -2.13533606 238.12610984 -2.12877274 231.39596558 C-2.12474676 227.18764273 -2.12291457 222.97932045 -2.12130737 218.77099609 C-2.10422495 179.19805753 -1.94316036 139.62750966 -1.59383392 100.05597305 C-1.56301055 96.55794018 -1.53309275 93.05990036 -1.50323486 89.56185913 C-1.24415822 59.70123242 -0.74658591 29.85243886 0 0 Z " fill="#E97179" transform="translate(145,163)"/>
<path d="M0 0 C0.66 0.33 1.32 0.66 2 1 C1.99788403 1.57652056 1.99576806 2.15304111 1.99358797 2.74703199 C1.86826832 36.89220903 1.74300578 71.03738628 1.61781773 105.1825638 C1.60279687 109.27950543 1.58777554 113.37644705 1.57275391 117.47338867 C1.56976329 118.28903957 1.56677268 119.10469047 1.56369144 119.94505807 C1.51522311 133.16384482 1.46671598 146.38263144 1.41819459 159.601418 C1.36843343 173.1581911 1.31871379 186.71496436 1.26903296 200.27173775 C1.23835904 208.64159395 1.20765247 217.01145003 1.17690456 225.38130596 C1.15584229 231.11548679 1.13482023 236.84966777 1.11383021 242.58384887 C1.10170656 245.89553139 1.08955885 249.20721381 1.07737541 252.5188961 C1.06418776 256.10429746 1.05106708 259.68969905 1.03796387 263.27510071 C1.03407292 264.32859107 1.03018197 265.38208143 1.02617311 266.46749574 C1.02268972 267.42443588 1.01920632 268.38137601 1.01561737 269.36731434 C1.01257961 270.19548438 1.00954185 271.02365442 1.00641203 271.87692052 C1.00125455 273.58460723 1 275.2923055 1 277 C1.66 276.01 2.32 275.02 3 274 C4.33951026 281.42819325 4.33951026 281.42819325 2.8125 284 C1 285 1 285 -3 285 C-3 285.99 -3 286.98 -3 288 C-3.66 288 -4.32 288 -5 288 C-5 288.66 -5 289.32 -5 290 C-5.84304688 290.34933594 -6.68609375 290.69867188 -7.5546875 291.05859375 C-8.65039062 291.51363281 -9.74609375 291.96867187 -10.875 292.4375 C-12.51082031 293.11619141 -12.51082031 293.11619141 -14.1796875 293.80859375 C-15.80558624 294.49543463 -17.42131774 295.21065887 -19 296 C-21.54197964 296.3912935 -24.07391589 296.74479119 -26.625 297.0625 C-27.68460937 297.19881836 -27.68460937 297.19881836 -28.765625 297.33789062 C-30.5100041 297.56183119 -32.25495134 297.78133818 -34 298 C-34 297.34 -34 296.68 -34 296 C-34.99 296 -35.98 296 -37 296 C-37 295.34 -37 294.68 -37 294 C-36.01 294 -35.02 294 -34 294 C-34.33 293.34 -34.66 292.68 -35 292 C-37.64 292 -40.28 292 -43 292 C-40.24411644 289.24411644 -37.32831427 289.29611086 -33.625 288.75 C-26.95282493 287.64696297 -21.58505362 285.70600112 -15.625 282.41015625 C-13.26053325 281.13995908 -11.04604899 280.25654149 -8.5 279.4375 C-4.37581524 277.7436384 -3.24616055 276.83361601 -1 273 C-0.40544419 269.34657622 -0.45364961 265.7293628 -0.48101807 262.03459167 C-0.47351681 260.91550976 -0.46601556 259.79642784 -0.458287 258.64343435 C-0.43795479 254.88604444 -0.44612378 251.12925479 -0.45410156 247.37182617 C-0.44536956 244.68144518 -0.43506062 241.9911134 -0.42277527 239.30075073 C-0.39945715 233.5047613 -0.39071498 227.708897 -0.39188385 221.91286278 C-0.39355274 213.53281077 -0.37322197 205.15292564 -0.34752855 196.77291814 C-0.30643955 183.17682661 -0.28313261 169.58076507 -0.27099609 155.98461914 C-0.25916884 142.77755855 -0.2389745 129.57055445 -0.20751953 116.36352539 C-0.20558343 115.54938922 -0.20364733 114.73525304 -0.20165256 113.89644607 C-0.19188802 109.81214745 -0.1819589 105.72784925 -0.17194796 101.64355123 C-0.0891154 67.76239196 -0.03513626 33.88124215 0 0 Z " fill="#A39D90" transform="translate(485,176)"/>
<path d="M0 0 C1.93699658 -0.00067668 3.87399308 -0.0016497 5.81098938 -0.00289917 C9.84397196 -0.00436083 13.87693217 -0.00227266 17.90991211 0.00244141 C23.00841488 0.00811914 28.1068652 0.004778 33.20536613 -0.00101089 C73.55703359 -0.03965682 73.55703359 -0.03965682 92.36328125 1.1328125 C92.36328125 1.4628125 92.36328125 1.7928125 92.36328125 2.1328125 C91.35772186 2.13059189 90.35216248 2.12837128 89.31613159 2.12608337 C79.64474846 2.10544185 69.97337002 2.09064925 60.30196953 2.08100033 C55.33476693 2.0758724 50.36758267 2.06896912 45.40039062 2.05737305 C24.80179218 2.0106466 4.21423224 2.05455401 -16.37890625 2.57421875 C-17.61305456 2.60351628 -17.61305456 2.60351628 -18.87213516 2.63340569 C-21.16219075 2.68940186 -23.4519171 2.75244951 -25.74169922 2.81860352 C-27.03123505 2.85486343 -28.32077087 2.89112335 -29.64938354 2.92848206 C-32.56216189 2.93506078 -32.56216189 2.93506078 -34.63671875 4.1328125 C-36.0722514 4.30728605 -37.51417874 4.4305366 -38.95703125 4.52734375 C-39.86904297 4.5936499 -40.78105469 4.65995605 -41.72070312 4.72827148 C-43.22600586 4.83570679 -43.22600586 4.83570679 -44.76171875 4.9453125 C-54.92181139 5.733892 -65.02664576 6.80725557 -75.13671875 8.0703125 C-75.82465515 8.15603516 -76.51259155 8.24175781 -77.22137451 8.33007812 C-86.17922831 9.45679225 -95.05192988 10.76711361 -103.87109375 12.71484375 C-106.54630642 13.11914849 -108.11526501 13.0324574 -110.63671875 12.1328125 C-101.14044476 8.98060464 -92.60782438 7.97454098 -82.63671875 8.1328125 C-82.63671875 7.4728125 -82.63671875 6.8128125 -82.63671875 6.1328125 C-80.32671875 6.1328125 -78.01671875 6.1328125 -75.63671875 6.1328125 C-75.63671875 5.4728125 -75.63671875 4.8128125 -75.63671875 4.1328125 C-74.98445313 4.14441406 -74.3321875 4.15601563 -73.66015625 4.16796875 C-67.70874557 4.22941399 -62.33255673 4.03142516 -56.63671875 2.1328125 C-53.94540794 1.92241687 -51.26961896 1.75753539 -48.57421875 1.6328125 C-47.12498728 1.56014908 -45.67576929 1.48721654 -44.2265625 1.4140625 C-43.42418152 1.37582367 -42.62180054 1.33758484 -41.79510498 1.29818726 C-39.48885754 1.17743093 -37.18349589 1.039403 -34.87884521 0.89126587 C-23.2442098 0.15297412 -11.65544103 -0.01466038 0 0 Z " fill="#E1A370" transform="translate(282.63671875,133.8671875)"/>
<path d="M0 0 C2.45437471 0.93096972 3.88382767 1.86639751 5.61417103 3.85635662 C7.74879487 8.69858191 7.40183286 13.3761072 7.36076355 18.61079407 C7.36332682 19.79929638 7.3658901 20.98779868 7.36853105 22.21231622 C7.37261784 25.50767561 7.36324377 28.80250039 7.34819686 32.09779513 C7.33524079 35.6526142 7.33962566 39.20741677 7.34190369 42.76225281 C7.34347669 48.92003096 7.33406465 55.07771375 7.31719017 61.23546791 C7.29280844 70.13852943 7.28499575 79.04154484 7.2812262 87.94463613 C7.27466041 102.38930504 7.25469581 116.83392313 7.22631836 131.27856445 C7.19878107 145.31013739 7.17754587 159.34169652 7.16479492 173.37329102 C7.16400675 174.23820612 7.16321858 175.10312122 7.16240653 175.99424586 C7.15849141 180.33327327 7.15470029 184.67230077 7.15097082 189.01132834 C7.11987096 225.00758811 7.0670317 261.0037901 7 297 C6.01 297.33 5.02 297.66 4 298 C3.26676204 300.01508358 3.26676204 300.01508358 3 302 C2.67 301.34 2.34 300.68 2 300 C2.69956865 299.05506133 2.69956865 299.05506133 3.41327 298.09103298 C5.84295524 293.35787912 5.41639792 288.79027476 5.38768005 283.54347229 C5.39306559 282.37145403 5.39845113 281.19943578 5.40399987 279.99190181 C5.41583239 276.7424221 5.41420741 273.49327086 5.40683305 270.24378812 C5.40210565 266.73791008 5.41460742 263.23208721 5.42485046 259.72622681 C5.44205218 252.85943247 5.44287565 245.99272958 5.43763756 239.12591929 C5.43359721 233.54493973 5.43503781 227.96398722 5.44038582 222.38300896 C5.44113424 221.58889007 5.44188266 220.79477118 5.44265376 219.97658808 C5.44418523 218.36337113 5.44572358 216.75015419 5.44726873 215.13693725 C5.46099872 200.0063314 5.45555257 184.87577723 5.44408352 169.74517255 C5.4341504 155.901426 5.44709225 142.05781308 5.47101771 128.21408714 C5.49539724 114.00058997 5.50501942 99.78715508 5.49836498 85.57363743 C5.49487023 77.59331338 5.49712167 69.61309214 5.51461601 61.63278389 C5.52932367 54.8393671 5.52999234 48.0461255 5.5125451 41.2527122 C5.50402078 37.78659331 5.50192001 34.32078755 5.51719666 30.85468483 C5.53033134 27.09732912 5.51892432 23.34082971 5.50120544 19.58351135 C5.51081045 18.48769684 5.52041546 17.39188233 5.53031152 16.26286131 C5.4708031 10.14728568 4.98315427 6.70844543 1 2 C0.67 1.34 0.34 0.68 0 0 Z " fill="#D78474" transform="translate(488,156)"/>
<path d="M0 0 C-1.33333333 0.66666667 -2.66666667 1.33333333 -4 2 C-4.64453125 2.35320312 -5.2890625 2.70640625 -5.953125 3.0703125 C-8.24840522 4.11282527 -10.25906097 4.49594406 -12.75 4.875 C-18.34029501 5.81422967 -23.77669232 7.14548581 -29.25292969 8.59130859 C-36.54842687 10.48550754 -43.73287809 11.16873591 -51.23046875 11.62109375 C-53.95588612 11.83568615 -53.95588612 11.83568615 -55.984375 13.03125 C-58.75528388 14.36300466 -61.00910058 14.15709106 -64.0625 14.0625 C-67.47578827 13.96545967 -69.74445729 13.9148191 -73 15 C-76.42792492 15.25898279 -79.84994315 15.44241155 -83.28320312 15.60546875 C-87.27142972 15.74031487 -87.27142972 15.74031487 -91 17 C-91.35840222 19.32961443 -91.68848712 21.66365343 -92 24 C-92.63028587 25.68076231 -93.29788106 27.34795544 -94 29 C-94.28875 30.216875 -94.5775 31.43375 -94.875 32.6875 C-96 36 -96 36 -98.125 37.4375 C-98.74375 37.623125 -99.3625 37.80875 -100 38 C-100 37.34 -100 36.68 -100 36 C-99.34 36 -98.68 36 -98 36 C-98 28.74 -98 21.48 -98 14 C-87.6875 13.0625 -87.6875 13.0625 -84.44799805 12.77368164 C-83.60277588 12.69496826 -82.75755371 12.61625488 -81.88671875 12.53515625 C-81.02264404 12.456604 -80.15856934 12.37805176 -79.26831055 12.29711914 C-76.83913288 12.05212023 -76.83913288 12.05212023 -74 11 C-71.99281499 10.8169751 -69.98125562 10.68036208 -67.96875 10.5703125 C-66.76476562 10.49683594 -65.56078125 10.42335938 -64.3203125 10.34765625 C-61.80502841 10.20105994 -59.28939736 10.06028225 -56.7734375 9.92578125 C-50.02181044 9.50290864 -43.83448355 8.70408867 -37.36035156 6.70825195 C-35.00169585 6.00050886 -32.67143637 5.50295459 -30.25 5.0625 C-26.5861509 4.37990391 -23.04236274 3.46226543 -19.46020508 2.43432617 C-12.81462227 0.53807132 -6.90494526 -0.58488948 0 0 Z " fill="#D17487" transform="translate(466,472)"/>
<path d="M0 0 C0.33 0 0.66 0 1 0 C1.33 96.69 1.66 193.38 2 293 C2.99 293.33 3.98 293.66 5 294 C5.495 295.485 5.495 295.485 6 297 C2.83884224 295.63016497 2.0072908 295.0109362 0 292 C-0.24839699 289.75509197 -0.24839699 289.75509197 -0.24609566 287.0705843 C-0.25007775 286.04745964 -0.25405985 285.02433499 -0.25816262 283.97020656 C-0.24942409 282.27907899 -0.24942409 282.27907899 -0.24050903 280.55378723 C-0.24221788 279.35882667 -0.24392673 278.1638661 -0.24568737 276.93269461 C-0.24841786 273.61012564 -0.24214538 270.28779085 -0.23213124 266.96525013 C-0.22351159 263.3844923 -0.22641585 259.80374197 -0.22793579 256.22297668 C-0.22898558 250.01716706 -0.22269914 243.81139942 -0.21146011 237.60560036 C-0.19522084 228.6330117 -0.18999872 219.66044338 -0.18748413 210.68784162 C-0.18310455 196.13115698 -0.16978833 181.57449474 -0.15087891 167.01782227 C-0.1325269 152.8755708 -0.11836707 138.73332542 -0.10986328 124.59106445 C-0.10933783 123.71964991 -0.10881239 122.84823538 -0.10827102 121.95041434 C-0.10566098 117.57887747 -0.10313356 113.20734056 -0.10064721 108.83580363 C-0.07990653 72.55718661 -0.04467386 36.27859505 0 0 Z " fill="#BB7770" transform="translate(145,163)"/>
<path d="M0 0 C3.40312738 1.05875074 6.01353231 2.00902154 9 4 C9 4.66 9 5.32 9 6 C9.54527344 6.12503906 10.09054688 6.25007813 10.65234375 6.37890625 C13.34775684 7.09200223 15.93325576 8.00973739 18.5625 8.9375 C23.50350664 10.60854604 28.2973498 11.67885373 33.4375 12.50390625 C35.83254437 12.967581 37.91329184 13.6342503 40.1875 14.5 C45.00602628 16.23017102 49.92255537 16.67941752 54.97729492 17.22827148 C60.03832798 17.804619 64.71935098 18.87692726 69.5859375 20.33984375 C73.0319376 21.28219653 76.45455472 21.60606164 80 22 C80.33 22.33 80.66 22.66 81 23 C83.01594582 23.23427778 85.038474 23.41336124 87.0625 23.5625 C88.16722656 23.64628906 89.27195312 23.73007812 90.41015625 23.81640625 C91.26480469 23.87699219 92.11945313 23.93757813 93 24 C93 24.33 93 24.66 93 25 C76.58826827 26.05692727 59.79599802 22.67899411 43.91796875 18.71484375 C40.50440991 17.87859038 37.06999388 17.19475843 33.625 16.5 C28.75282122 15.46325193 24.51958047 14.13187758 20 12 C17.22485801 10.99416251 14.43981695 10.02228663 11.6484375 9.0625 C8.87043538 7.94802127 6.46052226 6.70548835 4 5 C4 4.34 4 3.68 4 3 C3.01 3 2.02 3 1 3 C0.67 2.01 0.34 1.02 0 0 Z " fill="#D86B83" transform="translate(151,460)"/>
<path d="M0 0 C1.13598633 0.00483398 1.13598633 0.00483398 2.29492188 0.00976562 C3.47344727 0.02233398 3.47344727 0.02233398 4.67578125 0.03515625 C5.47306641 0.03966797 6.27035156 0.04417969 7.09179688 0.04882812 C9.05732382 0.06059775 11.0228121 0.07853277 12.98828125 0.09765625 C10.98828125 2.09765625 10.98828125 2.09765625 8.2734375 2.2578125 C7.20996094 2.22558594 6.14648438 2.19335938 5.05078125 2.16015625 C1.60475791 2.06385183 -0.72658586 2.00261195 -4.01171875 3.09765625 C-7.43964367 3.35663904 -10.8616619 3.5400678 -14.29492188 3.703125 C-18.28314847 3.83797112 -18.28314847 3.83797112 -22.01171875 5.09765625 C-22.37012097 7.42727068 -22.70020587 9.76130968 -23.01171875 12.09765625 C-23.64200462 13.77841856 -24.30959981 15.44561169 -25.01171875 17.09765625 C-25.30046875 18.31453125 -25.58921875 19.53140625 -25.88671875 20.78515625 C-27.01171875 24.09765625 -27.01171875 24.09765625 -29.13671875 25.53515625 C-29.75546875 25.72078125 -30.37421875 25.90640625 -31.01171875 26.09765625 C-31.01171875 25.43765625 -31.01171875 24.77765625 -31.01171875 24.09765625 C-30.35171875 24.09765625 -29.69171875 24.09765625 -29.01171875 24.09765625 C-29.01171875 16.83765625 -29.01171875 9.57765625 -29.01171875 2.09765625 C-18.19921875 1.66015625 -18.19921875 1.66015625 -14.80151367 1.52954102 C-13.91568604 1.49143311 -13.0298584 1.4533252 -12.1171875 1.4140625 C-11.21121826 1.37740479 -10.30524902 1.34074707 -9.37182617 1.30297852 C-6.09105334 1.01756112 -3.34142363 -0.02512349 0 0 Z " fill="#E26A8D" transform="translate(397.01171875,483.90234375)"/>
<path d="M0 0 C1.64838944 3.29677888 1.14272738 6.94316044 1.125 10.5625 C1.12886719 11.35591797 1.13273437 12.14933594 1.13671875 12.96679688 C1.12663067 18.87336933 1.12663067 18.87336933 0 20 C-2.31 20 -4.62 20 -7 20 C-7 13.73 -7 7.46 -7 1 C-4.53721199 -0.231394 -2.7204945 -0.07159196 0 0 Z " fill="#B2B0A3" transform="translate(437,215)"/>
<path d="M0 0 C2.31 0 4.62 0 7 0 C9.03480984 2.03480984 8.18507583 6.08720017 8.1875 8.875 C8.19974609 9.60847656 8.21199219 10.34195312 8.22460938 11.09765625 C8.23509566 14.93563514 8.17768617 16.73347074 6 20 C4.02 19.67 2.04 19.34 0 19 C0 12.73 0 6.46 0 0 Z " fill="#B2B0A2" transform="translate(430,277)"/>
<path d="M0 0 C1.65 0 3.3 0 5 0 C5.78688445 2.77723925 6.11949924 5.22610077 6.09765625 8.109375 C6.09282227 9.24052734 6.09282227 9.24052734 6.08789062 10.39453125 C6.07951172 11.17183594 6.07113281 11.94914062 6.0625 12.75 C6.05798828 13.54277344 6.05347656 14.33554687 6.04882812 15.15234375 C6.03708565 17.10159508 6.01915146 19.05080738 6 21 C3.69 21 1.38 21 -1 21 C-1.02895976 17.87501937 -1.04678483 14.7500731 -1.0625 11.625 C-1.07087891 10.73554688 -1.07925781 9.84609375 -1.08789062 8.9296875 C-1.09111328 8.07890625 -1.09433594 7.228125 -1.09765625 6.3515625 C-1.10289307 5.56604004 -1.10812988 4.78051758 -1.11352539 3.97119141 C-1 2 -1 2 0 0 Z " fill="#B0ADA0" transform="translate(431,432)"/>
<path d="M0 0 C1.98 0 3.96 0 6 0 C7.1482685 2.296537 7.11561175 3.58313167 7.09765625 6.1328125 C7.09282227 7.34130859 7.09282227 7.34130859 7.08789062 8.57421875 C7.07951172 9.41597656 7.07113281 10.25773437 7.0625 11.125 C7.05798828 11.97449219 7.05347656 12.82398438 7.04882812 13.69921875 C7.03702874 15.79950909 7.01909306 17.8997633 7 20 C4.69 20 2.38 20 0 20 C0 13.4 0 6.8 0 0 Z " fill="#B0ADA0" transform="translate(430,401)"/>
<path d="M0 0 C-1.258125 0.391875 -2.51625 0.78375 -3.8125 1.1875 C-8.62452141 2.77623088 -13.14455975 4.8326382 -17.71484375 7.01171875 C-20 8 -20 8 -22 8 C-22 8.66 -22 9.32 -22 10 C-22.99 10.66 -23.98 11.32 -25 12 C-25.92923977 14.78771931 -26.14867338 16.58234248 -26.20532227 19.47143555 C-26.22526749 20.37214279 -26.24521271 21.27285004 -26.26576233 22.20085144 C-26.28247482 23.16968765 -26.29918732 24.13852386 -26.31640625 25.13671875 C-26.33718735 26.13129593 -26.35796844 27.12587311 -26.37937927 28.15058899 C-26.44479412 31.32948867 -26.5037224 34.50847134 -26.5625 37.6875 C-26.60569288 39.84180548 -26.64930742 41.99610254 -26.69335938 44.15039062 C-26.80046726 49.43350588 -26.90224873 54.71670379 -27 60 C-27.33 60 -27.66 60 -28 60 C-28.82436672 51.03453268 -29.21420997 42.10543745 -29.24023438 33.10424805 C-29.25010849 31.0398165 -29.28135318 28.97631635 -29.3125 26.91210938 C-29.31901828 25.57813076 -29.32427334 24.24414523 -29.328125 22.91015625 C-29.3374707 21.72558838 -29.34681641 20.54102051 -29.35644531 19.32055664 C-28.86455163 14.73819643 -27.29645451 11.41992637 -24.1953125 8.0234375 C-17.98549818 3.0790193 -8.15699333 -3.00208955 0 0 Z " fill="#EB8C66" transform="translate(172,148)"/>
<path d="M0 0 C1.98 0 3.96 0 6 0 C7.59412284 3.18824568 7.10174735 6.62896662 7.0625 10.125 C7.05798828 10.87910156 7.05347656 11.63320313 7.04882812 12.41015625 C7.03703499 14.27347127 7.01909942 16.13674555 7 18 C3.98968256 18.93423645 3.13349732 19.04449911 0 18 C0 12.06 0 6.12 0 0 Z " fill="#AEAB9E" transform="translate(430,339)"/>
<path d="M0 0 C19.2199042 0.57225587 19.2199042 0.57225587 26.484375 3.17578125 C33.07810015 5.33614772 40.11675539 6.30287497 46.9375 7.52734375 C50.74277057 8.22923055 54.21181069 8.97031481 57.75 10.5625 C60.89987353 11.95571329 63.59765757 12.58508019 67 13 C67 13.66 67 14.32 67 15 C67.86625 15.103125 68.7325 15.20625 69.625 15.3125 C73.16683123 16.03398414 75.84312042 17.27123261 79 19 C75.10166391 20.29944536 73.87328113 19.37504751 70.125 17.8125 C60.34501438 13.89833724 50.48096054 10.99232905 40.19921875 8.72265625 C37.02904463 8.00656075 33.89344561 7.19970626 30.75 6.375 C25.82562545 5.11938259 21.05076613 4.49679667 16 4 C15.67 3.67 15.34 3.34 15 3 C12.47804033 2.60056824 9.97036344 2.24920152 7.4375 1.9375 C6.72658203 1.84662109 6.01566406 1.75574219 5.28320312 1.66210938 C3.52261597 1.43760497 1.76136522 1.21831603 0 1 C0 0.67 0 0.34 0 0 Z " fill="#E16288" transform="translate(281,489)"/>
<path d="M0 0 C4.95 0 9.9 0 15 0 C14.34 1.98 13.68 3.96 13 6 C-7.46 5.67 -27.92 5.34 -49 5 C-49 4.67 -49 4.34 -49 4 C-32.83 3.67 -16.66 3.34 0 3 C0 2.01 0 1.02 0 0 Z " fill="#E7E5DD" transform="translate(345,152)"/>
<path d="M0 0 C1.32 0 2.64 0 4 0 C5.59412284 3.18824568 5.10174735 6.62896662 5.0625 10.125 C5.05798828 10.87910156 5.05347656 11.63320313 5.04882812 12.41015625 C5.03703499 14.27347127 5.01909942 16.13674555 5 18 C3.35 18.33 1.7 18.66 0 19 C-1.79905658 15.13773965 -2.27111493 12.06187948 -2.25 7.8125 C-2.25515625 6.76707031 -2.2603125 5.72164063 -2.265625 4.64453125 C-2 2 -2 2 0 0 Z " fill="#AAA89A" transform="translate(432,308)"/>
<path d="M0 0 C0 0.33 0 0.66 0 1 C-0.99114304 1.02283554 -1.98228607 1.04567108 -3.00346375 1.06919861 C-12.34677185 1.28503895 -21.68996092 1.50550416 -31.0330534 1.73049068 C-35.83635636 1.84600818 -40.63968638 1.95989938 -45.44311523 2.07006836 C-50.07919192 2.176459 -54.71514854 2.28712883 -59.35105324 2.40075874 C-61.11922417 2.44334705 -62.88743285 2.48439672 -64.65567589 2.5238781 C-67.13344265 2.57946539 -69.61101839 2.64053541 -72.08862305 2.70288086 C-72.81870575 2.71798706 -73.54878845 2.73309326 -74.30099487 2.74865723 C-77.98040128 2.84715072 -81.41245361 3.18266192 -85 4 C-86.47369382 4.07536211 -87.95019993 4.10827194 -89.42578125 4.09765625 C-90.61977539 4.09282227 -90.61977539 4.09282227 -91.83789062 4.08789062 C-92.65451172 4.07951172 -93.47113281 4.07113281 -94.3125 4.0625 C-95.14845703 4.05798828 -95.98441406 4.05347656 -96.84570312 4.04882812 C-98.89716649 4.03710548 -100.94859273 4.01917203 -103 4 C-103 3.67 -103 3.34 -103 3 C-101.41058594 2.90912109 -101.41058594 2.90912109 -99.7890625 2.81640625 C-98.40102779 2.73199873 -97.01300768 2.64735083 -95.625 2.5625 C-94.92632812 2.52318359 -94.22765625 2.48386719 -93.5078125 2.44335938 C-89.62639508 2.25719866 -89.62639508 2.25719866 -86 1 C-83.72959654 0.84217149 -81.45463154 0.7489492 -79.1796875 0.68359375 C-78.11303864 0.65235413 -78.11303864 0.65235413 -77.02484131 0.6204834 C-74.64168036 0.55350305 -72.25840894 0.49494041 -69.875 0.4375 C-69.05763367 0.41632111 -68.24026733 0.39514221 -67.39813232 0.37332153 C-44.93592522 -0.19930404 -22.46747996 -0.09374671 0 0 Z " fill="#C4AF98" transform="translate(336,135)"/>
<path d="M0 0 C2.95283836 5.03678487 3.15421469 10.78200359 3.91479492 16.47216797 C4.18680695 18.49484649 4.47446329 20.51487332 4.76367188 22.53515625 C4.93833984 23.81261719 5.11300781 25.09007812 5.29296875 26.40625 C5.4530542 27.57478516 5.61313965 28.74332031 5.77807617 29.94726562 C5.97571546 32.66594737 5.87354131 34.45109345 5 37 C2.81117859 30.55726456 0.76899504 24.07931928 -1.1875 17.5625 C-1.46013672 16.66595703 -1.73277344 15.76941406 -2.01367188 14.84570312 C-2.27083984 13.99041016 -2.52800781 13.13511719 -2.79296875 12.25390625 C-3.0252417 11.48377197 -3.25751465 10.7136377 -3.49682617 9.92016602 C-4 8 -4 8 -4 6 C-3.01 6 -2.02 6 -1 6 C-0.67 4.02 -0.34 2.04 0 0 Z " fill="#EAE9E2" transform="translate(349,378)"/>
<path d="M0 0 C1.32 0 2.64 0 4 0 C5.59412284 3.18824568 5.10174735 6.62896662 5.0625 10.125 C5.05798828 10.87910156 5.05347656 11.63320313 5.04882812 12.41015625 C5.03703499 14.27347127 5.01909942 16.13674555 5 18 C3.34385343 18.38218767 1.67542976 18.71395102 0 19 C-1.8855253 17.1144747 -1.13246689 14.42231169 -1.13671875 11.91796875 C-1.13285156 11.12003906 -1.12898438 10.32210938 -1.125 9.5 C-1.12886719 8.70207031 -1.13273437 7.90414063 -1.13671875 7.08203125 C-1.12660767 1.12660767 -1.12660767 1.12660767 0 0 Z " fill="#ABA79A" transform="translate(432,370)"/>
<path d="M0 0 C0 3.3 0 6.6 0 10 C0.99 10.33 1.98 10.66 3 11 C4.6875 14.0625 4.6875 14.0625 6 17 C5.34 17 4.68 17 4 17 C3.67 16.34 3.34 15.68 3 15 C2.01 14.67 1.02 14.34 0 14 C0 13.01 0 12.02 0 11 C-1.65 11.33 -3.3 11.66 -5 12 C-5.33 19.92 -5.66 27.84 -6 36 C-6.33 36 -6.66 36 -7 36 C-7 25.44 -7 14.88 -7 4 C-6.34 4 -5.68 4 -5 4 C-5 3.34 -5 2.68 -5 2 C-1.125 0 -1.125 0 0 0 Z " fill="#888881" transform="translate(154,157)"/>
<path d="M0 0 C1.65 0.33 3.3 0.66 5 1 C5 6.28 5 11.56 5 17 C3.35 17.33 1.7 17.66 0 18 C-1.82116003 16.17883997 -1.1323508 13.69328236 -1.13671875 11.2734375 C-1.13285156 10.52320313 -1.12898438 9.77296875 -1.125 9 C-1.12886719 8.24976563 -1.13273437 7.49953125 -1.13671875 6.7265625 C-1.12661053 1.12661053 -1.12661053 1.12661053 0 0 Z " fill="#AAA79A" transform="translate(432,247)"/>
<path d="M0 0 C3.40312738 1.05875074 6.01353231 2.00902154 9 4 C9 4.66 9 5.32 9 6 C9.54527344 6.12503906 10.09054688 6.25007813 10.65234375 6.37890625 C13.34775684 7.09200223 15.93325576 8.00973739 18.5625 8.9375 C23.52437234 10.61774283 28.34983459 11.74250949 33.52734375 12.5078125 C36.1916901 13.03815632 38.51158054 13.92272359 41 15 C41 15.33 41 15.66 41 16 C39.33388095 16.042721 37.66617115 16.04063832 36 16 C35.505 15.505 35.505 15.505 35 15 C32.89905026 14.72426908 30.79392365 14.48021024 28.6875 14.25 C19.74133943 13.03587821 11.5066293 10.09039057 4 5 C4 4.34 4 3.68 4 3 C3.01 3 2.02 3 1 3 C0.67 2.01 0.34 1.02 0 0 Z " fill="#D26D80" transform="translate(151,460)"/>
<path d="M0 0 C9.32630017 0.27964918 18.40742562 1.02576305 27 5 C27.33 5.99 27.66 6.98 28 8 C29.98723268 8.70381157 31.98777953 9.3711811 34 10 C34.495 10.99 34.495 10.99 35 12 C33.02 11.67 31.04 11.34 29 11 C29 10.34 29 9.68 29 9 C27.35 9 25.7 9 24 9 C24 8.34 24 7.68 24 7 C21.48025747 6.34964629 18.95934065 5.70462507 16.4375 5.0625 C15.73302734 4.88009766 15.02855469 4.69769531 14.30273438 4.50976562 C10.85551668 3.63604685 7.57554975 2.94605509 4.03515625 2.49609375 C3.03355469 2.33238281 2.03195312 2.16867188 1 2 C0.67 1.34 0.34 0.68 0 0 Z " fill="#E49970" transform="translate(452,144)"/>
<path d="M0 0 C12.41955333 -0.34357371 23.88505185 0.15738647 36 3 C36 3.33 36 3.66 36 4 C29.23544213 4.11984453 22.61830716 3.8469645 15.8828125 3.22265625 C11.90745267 2.91561626 7.98530202 2.9335783 4 3 C4 2.34 4 1.68 4 1 C2.68 0.67 1.36 0.34 0 0 Z " fill="#D36A84" transform="translate(244,485)"/>
<path d="M0 0 C1.32 0 2.64 0 4 0 C5.20272819 2.40545638 5.10071472 3.94996953 5.0625 6.625 C5.05347656 7.44226563 5.04445313 8.25953125 5.03515625 9.1015625 C5.02355469 9.72804687 5.01195312 10.35453125 5 11 C3.34385343 11.38218767 1.67542976 11.71395102 0 12 C-1 11 -1 11 -1.1328125 8.75 C-1.13023437 7.8425 -1.12765625 6.935 -1.125 6 C-1.12757813 5.0925 -1.13015625 4.185 -1.1328125 3.25 C-1 1 -1 1 0 0 Z " fill="#AAA89B" transform="translate(432,190)"/>
<path d="M0 0 C5.08197091 1.00827386 9.70443329 1.23202678 14.875 1.0625 C15.205 1.7225 15.535 2.3825 15.875 3.0625 C18.22407875 3.75181344 18.22407875 3.75181344 20.9375 4.1875 C21.85660156 4.35507813 22.77570313 4.52265625 23.72265625 4.6953125 C24.78806641 4.87707031 24.78806641 4.87707031 25.875 5.0625 C22.20357006 6.28630998 19.88985206 5.85269386 16.0546875 5.35546875 C15.39542267 5.27001297 14.73615784 5.18455719 14.05691528 5.09651184 C12.66622788 4.91408052 11.27600224 4.72809878 9.88623047 4.53881836 C7.7523538 4.25031823 5.6167499 3.97902958 3.48046875 3.70898438 C2.13007019 3.5296832 0.77980433 3.34937913 -0.5703125 3.16796875 C-1.80281738 3.00449951 -3.03532227 2.84103027 -4.30517578 2.67260742 C-5.23571777 2.47127197 -6.16625977 2.26993652 -7.125 2.0625 C-7.455 1.4025 -7.785 0.7425 -8.125 0.0625 C-4.7323326 -1.06838913 -3.43136693 -0.74786202 0 0 Z " fill="#E99A67" transform="translate(433.125,138.9375)"/>
<path d="M0 0 C5.94458985 -0.19490459 11.19266946 0.31479053 17.01171875 1.5 C21.43550915 2.24018977 25.8697627 2.39353465 30.34765625 2.55859375 C31.66056641 2.77708984 31.66056641 2.77708984 33 3 C33.66 3.99 34.32 4.98 35 6 C23.18778333 4.90865389 11.61901414 3.40393396 0 1 C0 0.67 0 0.34 0 0 Z " fill="#B37480" transform="translate(272,486)"/>
<path d="M0 0 C-4.625 4 -4.625 4 -8 4 C-8 4.66 -8 5.32 -8 6 C-8.66 6 -9.32 6 -10 6 C-10 16.23 -10 26.46 -10 37 C-10.33 37 -10.66 37 -11 37 C-11 26.44 -11 15.88 -11 5 C-9.68 4.34 -8.36 3.68 -7 3 C-7 2.34 -7 1.68 -7 1 C-3.375 -1.125 -3.375 -1.125 0 0 Z " fill="#8E8275" transform="translate(157,155)"/>
<path d="M0 0 C15.92938497 -0.55353075 15.92938497 -0.55353075 22 3 C22 3.66 22 4.32 22 5 C22.66 5.33 23.32 5.66 24 6 C18.81943455 5.20363476 13.73469093 4.09064396 8.625 2.9375 C7.79355469 2.75123047 6.96210938 2.56496094 6.10546875 2.37304688 C4.06998618 1.91681802 2.03494745 1.45860975 0 1 C0 0.67 0 0.34 0 0 Z " fill="#AA7780" transform="translate(307,492)"/>
<path d="M0 0 C0.33 0 0.66 0 1 0 C1.33 13.2 1.66 26.4 2 40 C2.99 40.33 3.98 40.66 5 41 C5.33 41.99 5.66 42.98 6 44 C2.83884224 42.63016497 2.0072908 42.0109362 0 39 C-0.17222348 36.02608939 -0.23194201 33.14797082 -0.1953125 30.17578125 C-0.1924826 29.31438034 -0.18965271 28.45297943 -0.18673706 27.56547546 C-0.17554237 24.81434231 -0.15043921 22.06353475 -0.125 19.3125 C-0.11496927 17.44727033 -0.10584359 15.58203555 -0.09765625 13.71679688 C-0.07560538 9.1444058 -0.04108049 4.57225811 0 0 Z " fill="#C76F7B" transform="translate(145,416)"/>
<path d="M0 0 C1.65 0 3.3 0 5 0 C4.51349578 4.78395815 3.87055812 8.55742447 2 13 C1.62406934 14.9924325 1.28020455 16.9918674 1 19 C0.67 19 0.34 19 0 19 C0 12.73 0 6.46 0 0 Z " fill="#F8578C" transform="translate(370,488)"/>
<path d="M0 0 C0.33 1.32 0.66 2.64 1 4 C-4.28 4 -9.56 4 -15 4 C-14 2 -14 2 -12.109375 1.3671875 C-8.02124399 0.51436547 -4.20385856 -0.27121668 0 0 Z " fill="#89826F" transform="translate(327,171)"/>
<path d="M0 0 C2.84550012 0.66010476 5.52325999 1.51724966 8.25 2.5625 C8.95640625 2.83191406 9.6628125 3.10132813 10.390625 3.37890625 C10.92171875 3.58386719 11.4528125 3.78882813 12 4 C11.67 4.66 11.34 5.32 11 6 C10.67 6.99 10.34 7.98 10 9 C7.27425729 8.62669176 6.19177915 8.20805399 4.296875 6.15234375 C3.53117187 5.05599609 3.53117187 5.05599609 2.75 3.9375 C2.22921875 3.20402344 1.7084375 2.47054687 1.171875 1.71484375 C0.78515625 1.14894531 0.3984375 0.58304688 0 0 Z " fill="#E8E5E0" transform="translate(258,221)"/>
<path d="M0 0 C2.47923801 -0.02685095 4.9581884 -0.04676547 7.4375 -0.0625 C8.14455078 -0.07087891 8.85160156 -0.07925781 9.58007812 -0.08789062 C11.38693559 -0.09653588 13.19387603 -0.05220011 15 0 C15.33 0.33 15.66 0.66 16 1 C18.01594582 1.23427778 20.038474 1.41336124 22.0625 1.5625 C23.16722656 1.64628906 24.27195313 1.73007812 25.41015625 1.81640625 C26.26480469 1.87699219 27.11945313 1.93757813 28 2 C28 2.33 28 2.66 28 3 C18.36774517 3.26349633 9.4994651 2.61693023 0 1 C0 0.67 0 0.34 0 0 Z " fill="#E56585" transform="translate(216,482)"/>
<path d="M0 0 C1.2065625 0.0309375 1.2065625 0.0309375 2.4375 0.0625 C2.7675 1.7125 3.0975 3.3625 3.4375 5.0625 C1.1275 5.3925 -1.1825 5.7225 -3.5625 6.0625 C-3.605221 4.39638095 -3.60313832 2.72867115 -3.5625 1.0625 C-2.5625 0.0625 -2.5625 0.0625 0 0 Z " fill="#AEAC9F" transform="translate(433.5625,463.9375)"/>
<path d="M0 0 C4.8333472 -0.08333357 9.23692563 0.04738513 14 1 C14 1.99 14 2.98 14 4 C14.99 4.33 15.98 4.66 17 5 C11.18733381 4.21450457 5.63122376 2.59317541 0 1 C0 0.67 0 0.34 0 0 Z " fill="#CCC9C0" transform="translate(205,191)"/>
<path d="M0 0 C6.95041086 -0.26618595 13.23514355 0.3879491 20 2 C20 2.33 20 2.66 20 3 C17.79194476 3.0544452 15.58349446 3.09299283 13.375 3.125 C12.14523437 3.14820313 10.91546875 3.17140625 9.6484375 3.1953125 C6.05683959 3.0030428 3.33338825 2.30258556 0 1 C0 0.67 0 0.34 0 0 Z " fill="#C5AE9A" transform="translate(432,142)"/>
<path d="M0 0 C0.33 0 0.66 0 1 0 C1 3.96 1 7.92 1 12 C0.34 12 -0.32 12 -1 12 C-1 12.66 -1 13.32 -1 14 C-5.46840411 13.50351065 -6.68987756 13.31012244 -10 10 C-6.7 10.33 -3.4 10.66 0 11 C0 7.37 0 3.74 0 0 Z " fill="#A87B84" transform="translate(367,496)"/>
<path d="M0 0 C1.32 0 2.64 0 4 0 C4 2.64 4 5.28 4 8 C3.34 8 2.68 8 2 8 C1.67 8.66 1.34 9.32 1 10 C-0.60725635 6.78548731 -0.05748185 3.56387464 0 0 Z " fill="#BCB9AF" transform="translate(364,464)"/>
<path d="M0 0 C0.33 0 0.66 0 1 0 C1.66 6.6 2.32 13.2 3 20 C1 19 1 19 0.33203125 17.03125 C-0.90861174 10.98661347 -0.98306911 6.0950285 0 0 Z " fill="#E1DED6" transform="translate(352,395)"/>
<path d="M0 0 C2.22640104 3.33960156 3.16130925 6.08610984 4 10 C3.01 11.485 3.01 11.485 2 13 C0.68 9.37 -0.64 5.74 -2 2 C-1.34 2 -0.68 2 0 2 C0 1.34 0 0.68 0 0 Z " fill="#928F86" transform="translate(337,365)"/>
<path d="M0 0 C1.32 0 2.64 0 4 0 C4.33 0.99 4.66 1.98 5 3 C1.25 4.125 1.25 4.125 -1 3 C-1 6.63 -1 10.26 -1 14 C-1.33 14 -1.66 14 -2 14 C-2.05389087 12.04196493 -2.09274217 10.08351091 -2.125 8.125 C-2.14820313 7.03445313 -2.17140625 5.94390625 -2.1953125 4.8203125 C-2 2 -2 2 0 0 Z " fill="#B5B3A6" transform="translate(432,308)"/>
<path d="M0 0 C1.65 0 3.3 0 5 0 C5.33 0.66 5.66 1.32 6 2 C8.34907875 2.68931344 8.34907875 2.68931344 11.0625 3.125 C11.98160156 3.29257813 12.90070313 3.46015625 13.84765625 3.6328125 C14.91306641 3.81457031 14.91306641 3.81457031 16 4 C12.21286807 5.26237731 9.74348067 4.67558873 5.8125 4.0625 C4.54019531 3.86785156 3.26789063 3.67320312 1.95703125 3.47265625 C0.98121094 3.31667969 0.00539063 3.16070312 -1 3 C-0.67 2.01 -0.34 1.02 0 0 Z " fill="#EE965F" transform="translate(443,140)"/>
<path d="M0 0 C-1.33333333 0.66666667 -2.66666667 1.33333333 -4 2 C-4.6084375 2.3403125 -5.216875 2.680625 -5.84375 3.03125 C-8.22093977 4.09926279 -10.16200114 4.39664716 -12.75 4.625 C-13.54921875 4.69976562 -14.3484375 4.77453125 -15.171875 4.8515625 C-16.07679688 4.92503906 -16.07679688 4.92503906 -17 5 C-11.65467807 1.43645204 -6.50060481 -0.48754536 0 0 Z " fill="#E96883" transform="translate(466,472)"/>
<path d="M0 0 C-4.625 4 -4.625 4 -8 4 C-8 4.66 -8 5.32 -8 6 C-8.66 6 -9.32 6 -10 6 C-10.33 6.99 -10.66 7.98 -11 9 C-10.67 7.35 -10.34 5.7 -10 4 C-9.01 3.67 -8.02 3.34 -7 3 C-7 2.34 -7 1.68 -7 1 C-3.375 -1.125 -3.375 -1.125 0 0 Z " fill="#AA8876" transform="translate(157,155)"/>
<path d="M0 0 C-5.61 -0.33 -11.22 -0.66 -17 -1 C-17 -1.33 -17 -1.66 -17 -2 C-5.18681319 -3.89010989 -5.18681319 -3.89010989 0 0 Z " fill="#F59557" transform="translate(424,139)"/>
<path d="M0 0 C0.99 0 1.98 0 3 0 C4 3 4 3 3 6 C1.68 5.67 0.36 5.34 -1 5 C-1 1 -1 1 0 0 Z " fill="#6B6B61" transform="translate(253,163)"/>
<path d="M0 0 C0.33 0 0.66 0 1 0 C1 4.29 1 8.58 1 13 C0.01 13.33 -0.98 13.66 -2 14 C-2.73323796 16.01508358 -2.73323796 16.01508358 -3 18 C-3.33 17.34 -3.66 16.68 -4 16 C-3.54625 15.360625 -3.0925 14.72125 -2.625 14.0625 C-0.23789814 9.56373112 -0.25518706 5.02454528 0 0 Z " fill="#CC7C80" transform="translate(494,440)"/>
<path d="M0 0 C0.66 0.33 1.32 0.66 2 1 C1.15115234 1.34611328 1.15115234 1.34611328 0.28515625 1.69921875 C-1.93041285 2.68434877 -3.97657555 3.66103202 -6 5 C-7.12815365 7.6147267 -7.12815365 7.6147267 -7 10 C-7.99 9.34 -8.98 8.68 -10 8 C-8.54213659 4.15654191 -6.61034412 2.84920065 -3 1 C-2.01 0.67 -1.02 0.34 0 0 Z " fill="#D4D1C7" transform="translate(165,159)"/>
<path d="M0 0 C0.66 0 1.32 0 2 0 C3.625 2 3.625 2 5 4 C4.34 4 3.68 4 3 4 C2.67 5.32 2.34 6.64 2 8 C0.35 8.33 -1.3 8.66 -3 9 C-1.68 8.34 -0.36 7.68 1 7 C1 5.68 1 4.36 1 3 C0.34 2.67 -0.32 2.34 -1 2 C-0.67 1.34 -0.34 0.68 0 0 Z " fill="#E7E7E0" transform="translate(387,161)"/>
<path d="M0 0 C5.28137429 0.51525603 8.57221156 2.25477117 13 5 C10.50907189 6.24546405 9.58919267 5.7767578 7 5 C7 4.34 7 3.68 7 3 C5.35 3 3.7 3 2 3 C2 2.34 2 1.68 2 1 C1.34 0.67 0.68 0.34 0 0 Z " fill="#D0A690" transform="translate(474,150)"/>
<path d="M0 0 C5.15171623 -0.09038099 9.91913204 0.15318867 15 1 C13 3 13 3 10.8359375 3.1953125 C9.61777344 3.16050781 9.61777344 3.16050781 8.375 3.125 C7.55773437 3.10695313 6.74046875 3.08890625 5.8984375 3.0703125 C5.27195313 3.04710937 4.64546875 3.02390625 4 3 C4 2.34 4 1.68 4 1 C2.68 0.67 1.36 0.34 0 0 Z " fill="#E76387" transform="translate(244,485)"/>
<path d="M0 0 C1.62418745 -0.08090971 3.24951745 -0.13914995 4.875 -0.1875 C5.77992188 -0.22230469 6.68484375 -0.25710938 7.6171875 -0.29296875 C8.79667969 -0.14794922 8.79667969 -0.14794922 10 0 C10.66 0.99 11.32 1.98 12 3 C7.97007218 2.44687265 3.97977076 1.8441938 0 1 C0 0.67 0 0.34 0 0 Z " fill="#9E7C7E" transform="translate(295,489)"/>
<path d="M0 0 C0 0.99 0 1.98 0 3 C-3 3 -3 3 -4.6875 1.5 C-5.120625 1.005 -5.55375 0.51 -6 0 C-3.50907189 -1.24546405 -2.58919267 -0.7767578 0 0 Z " fill="#E5E3DD" transform="translate(285,299)"/>
<path d="M0 0 C3.29148243 1.13499394 3.9959869 1.99283376 5.75 5.125 C6.1625 6.07375 6.575 7.0225 7 8 C6.34 8 5.68 8 5 8 C4.67 7.34 4.34 6.68 4 6 C3.01 5.67 2.02 5.34 1 5 C0.67 3.35 0.34 1.7 0 0 Z " fill="#919084" transform="translate(153,166)"/>
<path d="M0 0 C2.475 0.495 2.475 0.495 5 1 C4.67 2.32 4.34 3.64 4 5 C3.01 5 2.02 5 1 5 C0.67 3.35 0.34 1.7 0 0 Z " fill="#CCC8BD" transform="translate(436,464)"/>
<path d="M0 0 C2.96175123 0.61277612 4.38058783 1.25372522 7 3 C6.67 3.99 6.34 4.98 6 6 C3.97945196 4.35830472 1.97956942 2.69088222 0 1 C0 0.67 0 0.34 0 0 Z " fill="#EFECE6" transform="translate(258,221)"/>
</svg>
